<svg width="585" height="1267" viewBox="0 0 585 1267" fill="none" xmlns="http://www.w3.org/2000/svg">
<g opacity="0.05">
<path d="M423.995 653.558C503.386 516.048 456.272 340.216 318.763 260.825L-103.425 17.0753L-390.925 515.04L31.2627 758.79C168.772 838.181 344.604 791.067 423.995 653.558Z" stroke="white" stroke-width="25"/>
<path d="M423.995 653.558C503.386 516.048 456.272 340.216 318.763 260.825L-103.425 17.0753L-390.925 515.04L31.2627 758.79C168.772 838.181 344.604 791.067 423.995 653.558Z" stroke="white" stroke-width="25"/>
<path d="M350.383 611.058C406.302 514.204 373.117 390.356 276.263 334.438L-145.925 90.6876L-348.425 441.428L73.7627 685.178C170.617 741.097 294.464 707.912 350.383 611.058Z" stroke="white" stroke-width="25"/>
<path d="M350.383 611.058C406.302 514.204 373.117 390.356 276.263 334.438L-145.925 90.6876L-348.425 441.428L73.7627 685.178C170.617 741.097 294.464 707.912 350.383 611.058Z" stroke="white" stroke-width="25"/>
<path d="M276.771 568.558C309.217 512.359 289.962 440.497 233.763 408.05L-188.425 164.3L-305.925 367.816L116.263 611.566C172.462 644.013 244.324 624.757 276.771 568.558Z" stroke="white" stroke-width="25"/>
<path d="M276.771 568.558C309.217 512.359 289.962 440.497 233.763 408.05L-188.425 164.3L-305.925 367.816L116.263 611.566C172.462 644.013 244.324 624.757 276.771 568.558Z" stroke="white" stroke-width="25"/>
<rect x="-0.683013" y="0.183013" width="22" height="699" transform="matrix(-0.866025 -0.5 -0.5 0.866025 433.637 659.491)" fill="white"/>
<rect x="-0.683013" y="0.183013" width="22" height="699" transform="matrix(-0.866025 -0.5 -0.5 0.866025 433.637 659.491)" stroke="white"/>
<rect x="-0.683013" y="0.183013" width="22" height="699" transform="matrix(-0.866025 -0.5 -0.5 0.866025 433.637 659.491)" stroke="white"/>
<rect x="-0.683013" y="0.183013" width="22" height="699" transform="matrix(-0.866025 -0.5 -0.5 0.866025 360.025 616.991)" fill="white"/>
<rect x="-0.683013" y="0.183013" width="22" height="699" transform="matrix(-0.866025 -0.5 -0.5 0.866025 360.025 616.991)" stroke="white"/>
<rect x="-0.683013" y="0.183013" width="22" height="699" transform="matrix(-0.866025 -0.5 -0.5 0.866025 360.025 616.991)" stroke="white"/>
<rect x="-0.683013" y="0.183013" width="22" height="699" transform="matrix(-0.866025 -0.5 -0.5 0.866025 286.413 574.491)" fill="white"/>
<rect x="-0.683013" y="0.183013" width="22" height="699" transform="matrix(-0.866025 -0.5 -0.5 0.866025 286.413 574.491)" stroke="white"/>
<rect x="-0.683013" y="0.183013" width="22" height="699" transform="matrix(-0.866025 -0.5 -0.5 0.866025 286.413 574.491)" stroke="white"/>
</g>
</svg>
