<svg width="215" height="30" viewBox="0 0 215 30" fill="none" xmlns="http://www.w3.org/2000/svg">
<mask id="path-1-outside-1_531_572" maskUnits="userSpaceOnUse" x="-2" y="-2" width="219" height="34" fill="black">
<rect fill="white" x="-2" y="-2" width="219" height="34"/>
<path d="M1.8 29C1.50667 29 1.26667 28.9067 1.08 28.72C0.893333 28.5333 0.8 28.2933 0.8 28V2C0.8 1.70667 0.893333 1.46667 1.08 1.28C1.26667 1.09333 1.50667 0.999998 1.8 0.999998H12.2C14.8133 0.999998 17.04 1.42666 18.88 2.28C20.72 3.10667 22.1333 4.33333 23.12 5.96C24.1067 7.56 24.64 9.54667 24.72 11.92C24.7467 13.0933 24.76 14.12 24.76 15C24.76 15.88 24.7467 16.8933 24.72 18.04C24.6133 20.52 24.08 22.5733 23.12 24.2C22.1867 25.8267 20.8133 27.04 19 27.84C17.2133 28.6133 15.0133 29 12.4 29H1.8ZM7.96 23.24H12.2C13.3467 23.24 14.2933 23.0667 15.04 22.72C15.8133 22.3467 16.3867 21.7733 16.76 21C17.16 20.2267 17.3733 19.2133 17.4 17.96C17.4533 17.1867 17.48 16.4933 17.48 15.88C17.5067 15.2667 17.5067 14.6533 17.48 14.04C17.48 13.4267 17.4533 12.7467 17.4 12C17.3467 10.1867 16.8667 8.86667 15.96 8.04C15.08 7.18666 13.76 6.76 12 6.76H7.96V23.24ZM30.4328 29C30.1395 29 29.8995 28.9067 29.7128 28.72C29.5261 28.5333 29.4328 28.2933 29.4328 28V2C29.4328 1.70667 29.5261 1.46667 29.7128 1.28C29.8995 1.09333 30.1395 0.999998 30.4328 0.999998H49.1128C49.4061 0.999998 49.6461 1.09333 49.8328 1.28C50.0195 1.46667 50.1128 1.70667 50.1128 2V5.76C50.1128 6.05333 50.0195 6.29333 49.8328 6.48C49.6461 6.66666 49.4061 6.76 49.1128 6.76H36.3528V12.16H48.2328C48.5261 12.16 48.7661 12.2667 48.9528 12.48C49.1395 12.6667 49.2328 12.9067 49.2328 13.2V16.68C49.2328 16.9467 49.1395 17.1867 48.9528 17.4C48.7661 17.5867 48.5261 17.68 48.2328 17.68H36.3528V23.24H49.4328C49.7261 23.24 49.9661 23.3333 50.1528 23.52C50.3395 23.7067 50.4328 23.9467 50.4328 24.24V28C50.4328 28.2933 50.3395 28.5333 50.1528 28.72C49.9661 28.9067 49.7261 29 49.4328 29H30.4328ZM65.4197 29.4C62.753 29.4 60.5397 29.0267 58.7797 28.28C57.0197 27.5067 55.6864 26.5067 54.7797 25.28C53.873 24.0533 53.393 22.7467 53.3397 21.36C53.3397 21.1467 53.4197 20.96 53.5797 20.8C53.7664 20.6133 53.9797 20.52 54.2197 20.52H59.2597C59.633 20.52 59.913 20.5867 60.0997 20.72C60.313 20.8533 60.4997 21.0267 60.6597 21.24C60.873 21.64 61.1664 22.0267 61.5397 22.4C61.9397 22.7733 62.4464 23.08 63.0597 23.32C63.6997 23.5333 64.4864 23.64 65.4197 23.64C66.9664 23.64 68.1264 23.4 68.8997 22.92C69.6997 22.44 70.0997 21.7867 70.0997 20.96C70.0997 20.3733 69.8864 19.8933 69.4597 19.52C69.033 19.12 68.3397 18.7733 67.3797 18.48C66.4464 18.16 65.193 17.84 63.6197 17.52C61.593 17.0933 59.8597 16.5467 58.4197 15.88C57.0064 15.1867 55.9264 14.2933 55.1797 13.2C54.433 12.08 54.0597 10.6933 54.0597 9.04C54.0597 7.41333 54.513 5.96 55.4197 4.68C56.353 3.4 57.6464 2.4 59.2997 1.68C60.953 0.959999 62.913 0.599998 65.1797 0.599998C67.0197 0.599998 68.633 0.839999 70.0197 1.32C71.433 1.8 72.6197 2.44 73.5797 3.24C74.5397 4.04 75.2597 4.89333 75.7397 5.8C76.2464 6.68 76.513 7.54666 76.5397 8.4C76.5397 8.61333 76.4597 8.81333 76.2997 9C76.1397 9.16 75.9397 9.24 75.6997 9.24H70.4197C70.1264 9.24 69.873 9.18667 69.6597 9.08C69.4464 8.97333 69.2597 8.8 69.0997 8.56C68.9397 7.97333 68.513 7.46666 67.8197 7.04C67.153 6.58667 66.273 6.36 65.1797 6.36C64.0064 6.36 63.0864 6.57333 62.4197 7C61.7797 7.4 61.4597 8.02667 61.4597 8.88C61.4597 9.41333 61.633 9.88 61.9797 10.28C62.353 10.68 62.953 11.0267 63.7797 11.32C64.633 11.6133 65.793 11.92 67.2597 12.24C69.6864 12.6933 71.6464 13.2667 73.1397 13.96C74.633 14.6267 75.7264 15.5067 76.4197 16.6C77.113 17.6667 77.4597 19.0133 77.4597 20.64C77.4597 22.4533 76.9397 24.0267 75.8997 25.36C74.8864 26.6667 73.473 27.6667 71.6597 28.36C69.8464 29.0533 67.7664 29.4 65.4197 29.4ZM82.4641 29C82.1707 29 81.9307 28.9067 81.7441 28.72C81.5574 28.5333 81.4641 28.2933 81.4641 28V2C81.4641 1.70667 81.5574 1.46667 81.7441 1.28C81.9307 1.09333 82.1707 0.999998 82.4641 0.999998H94.6641C96.9574 0.999998 98.8374 1.32 100.304 1.96C101.771 2.6 102.851 3.52 103.544 4.72C104.264 5.89333 104.624 7.29333 104.624 8.92C104.624 9.88 104.437 10.7333 104.064 11.48C103.717 12.2 103.277 12.8 102.744 13.28C102.237 13.76 101.757 14.1067 101.304 14.32C102.317 14.8 103.211 15.5867 103.984 16.68C104.784 17.7733 105.184 19.0533 105.184 20.52C105.184 22.28 104.784 23.8 103.984 25.08C103.211 26.3333 102.064 27.3067 100.544 28C99.0507 28.6667 97.2107 29 95.0241 29H82.4641ZM88.6241 23.8H94.2241C95.3707 23.8 96.2374 23.4667 96.8241 22.8C97.4107 22.1333 97.7041 21.3733 97.7041 20.52C97.7041 19.5867 97.3974 18.8 96.7841 18.16C96.1974 17.52 95.3441 17.2 94.2241 17.2H88.6241V23.8ZM88.6241 12.12H93.8641C94.9574 12.12 95.7707 11.84 96.3041 11.28C96.8641 10.72 97.1441 10 97.1441 9.12C97.1441 8.26667 96.8641 7.57333 96.3041 7.04C95.7707 6.48 94.9574 6.2 93.8641 6.2H88.6241V12.12ZM110.628 29C110.335 29 110.095 28.9067 109.908 28.72C109.721 28.5333 109.628 28.2933 109.628 28V2C109.628 1.70667 109.721 1.46667 109.908 1.28C110.095 1.09333 110.335 0.999998 110.628 0.999998H121.508C124.948 0.999998 127.655 1.8 129.628 3.4C131.628 4.97333 132.628 7.21333 132.628 10.12C132.628 12.0133 132.161 13.6133 131.228 14.92C130.321 16.2267 129.121 17.2133 127.628 17.88L133.148 27.72C133.228 27.88 133.268 28.0267 133.268 28.16C133.268 28.3733 133.175 28.5733 132.988 28.76C132.828 28.92 132.628 29 132.388 29H127.108C126.601 29 126.228 28.88 125.988 28.64C125.748 28.3733 125.575 28.1333 125.468 27.92L120.908 19.12H116.788V28C116.788 28.2933 116.695 28.5333 116.508 28.72C116.321 28.9067 116.081 29 115.788 29H110.628ZM116.788 13.48H121.428C122.681 13.48 123.615 13.1733 124.228 12.56C124.868 11.9467 125.188 11.1067 125.188 10.04C125.188 9 124.881 8.16 124.268 7.52C123.681 6.88 122.735 6.56 121.428 6.56H116.788V13.48ZM135.684 29C135.471 29 135.271 28.92 135.084 28.76C134.924 28.5733 134.844 28.3733 134.844 28.16C134.844 28.0267 134.858 27.9067 134.884 27.8L144.284 2.12C144.364 1.82667 144.524 1.57333 144.764 1.36C145.031 1.12 145.391 0.999998 145.844 0.999998H151.764C152.218 0.999998 152.564 1.12 152.804 1.36C153.071 1.57333 153.244 1.82667 153.324 2.12L162.684 27.8C162.738 27.9067 162.764 28.0267 162.764 28.16C162.764 28.3733 162.671 28.5733 162.484 28.76C162.324 28.92 162.124 29 161.884 29H156.964C156.564 29 156.258 28.9067 156.044 28.72C155.858 28.5067 155.738 28.32 155.684 28.16L154.124 24.08H143.444L141.924 28.16C141.871 28.32 141.751 28.5067 141.564 28.72C141.378 28.9067 141.058 29 140.604 29H135.684ZM145.084 18.32H152.524L148.764 7.76L145.084 18.32ZM171.691 29C171.237 29 170.877 28.88 170.611 28.64C170.344 28.4 170.157 28.12 170.051 27.8L161.891 2.2C161.837 2.06667 161.811 1.94667 161.811 1.84C161.811 1.62667 161.891 1.44 162.051 1.28C162.237 1.09333 162.451 0.999998 162.691 0.999998H167.651C168.077 0.999998 168.411 1.12 168.651 1.36C168.891 1.6 169.037 1.82667 169.091 2.04L174.731 20.52L180.411 2.04C180.491 1.82667 180.637 1.6 180.851 1.36C181.091 1.12 181.424 0.999998 181.851 0.999998H186.811C187.051 0.999998 187.251 1.09333 187.411 1.28C187.597 1.44 187.691 1.62667 187.691 1.84C187.691 1.94667 187.664 2.06667 187.611 2.2L179.451 27.8C179.344 28.12 179.157 28.4 178.891 28.64C178.651 28.88 178.291 29 177.811 29H171.691ZM187.598 29C187.385 29 187.185 28.92 186.998 28.76C186.838 28.5733 186.758 28.3733 186.758 28.16C186.758 28.0267 186.772 27.9067 186.798 27.8L196.198 2.12C196.278 1.82667 196.438 1.57333 196.678 1.36C196.945 1.12 197.305 0.999998 197.758 0.999998H203.678C204.132 0.999998 204.478 1.12 204.718 1.36C204.985 1.57333 205.158 1.82667 205.238 2.12L214.598 27.8C214.652 27.9067 214.678 28.0267 214.678 28.16C214.678 28.3733 214.585 28.5733 214.398 28.76C214.238 28.92 214.038 29 213.798 29H208.878C208.478 29 208.172 28.9067 207.958 28.72C207.772 28.5067 207.652 28.32 207.598 28.16L206.038 24.08H195.358L193.838 28.16C193.785 28.32 193.665 28.5067 193.478 28.72C193.292 28.9067 192.972 29 192.518 29H187.598ZM196.998 18.32H204.438L200.678 7.76L196.998 18.32Z"/>
</mask>
<path d="M1.08 28.72L2.49421 27.3058H2.49421L1.08 28.72ZM1.08 1.28L2.49421 2.69422L2.49422 2.69421L1.08 1.28ZM18.88 2.28L18.0386 4.09437L18.0494 4.09942L18.0604 4.10434L18.88 2.28ZM23.12 5.96L21.41 6.99722L21.4138 7.00351L21.4177 7.00978L23.12 5.96ZM24.72 11.92L26.7195 11.8746L26.7192 11.8636L26.7189 11.8526L24.72 11.92ZM24.72 18.04L26.7182 18.1259L26.719 18.1062L26.7195 18.0865L24.72 18.04ZM23.12 24.2L21.3976 23.1835L21.3914 23.194L21.3853 23.2047L23.12 24.2ZM19 27.84L19.7945 29.6755L19.8073 29.6698L19 27.84ZM7.96 23.24H5.96V25.24H7.96V23.24ZM15.04 22.72L15.8822 24.534L15.8959 24.5277L15.9095 24.5211L15.04 22.72ZM16.76 21L14.9836 20.0812L14.9709 20.1057L14.9589 20.1305L16.76 21ZM17.4 17.96L15.4047 17.8224L15.4015 17.8699L15.4005 17.9175L17.4 17.96ZM17.48 15.88L15.4819 15.7931L15.48 15.8365V15.88H17.48ZM17.48 14.04H15.48V14.0835L15.4819 14.1269L17.48 14.04ZM17.4 12L15.4009 12.0588L15.4021 12.1007L15.4051 12.1425L17.4 12ZM15.96 8.04L14.5677 9.4758L14.5898 9.4972L14.6125 9.51791L15.96 8.04ZM7.96 6.76V4.76H5.96V6.76H7.96ZM1.8 27C1.86713 27 1.98394 27.0112 2.12489 27.066C2.26996 27.1224 2.39651 27.2081 2.49421 27.3058L-0.334213 30.1342C0.27086 30.7393 1.04083 31 1.8 31V27ZM2.49421 27.3058C2.59192 27.4035 2.67759 27.53 2.73401 27.6751C2.78883 27.8161 2.8 27.9329 2.8 28H-1.2C-1.2 28.7592 -0.939287 29.5291 -0.334213 30.1342L2.49421 27.3058ZM2.8 28V2H-1.2V28H2.8ZM2.8 2C2.8 2.06713 2.78883 2.18393 2.73401 2.32489C2.67759 2.46996 2.59192 2.59651 2.49421 2.69422L-0.33421 -0.134218C-0.939288 0.470857 -1.2 1.24083 -1.2 2H2.8ZM2.49422 2.69421C2.39651 2.79192 2.26996 2.87759 2.1249 2.93401C1.98394 2.98882 1.86713 3 1.8 3V-1C1.04083 -1 0.270857 -0.739287 -0.334216 -0.134211L2.49422 2.69421ZM1.8 3H12.2V-1H1.8V3ZM12.2 3C14.6034 3 16.5267 3.39324 18.0386 4.09437L19.7215 0.465622C17.5533 -0.539914 15.0233 -1 12.2 -1V3ZM18.0604 4.10434C19.5542 4.77548 20.6465 5.7385 21.41 6.99722L24.83 4.92277C23.6202 2.92817 21.8858 1.43785 19.6996 0.455661L18.0604 4.10434ZM21.4177 7.00978C22.1796 8.24541 22.6498 9.87168 22.7211 11.9874L26.7189 11.8526C26.6302 9.22165 26.0337 6.87459 24.8223 4.91022L21.4177 7.00978ZM22.7205 11.9654C22.7469 13.1283 22.76 14.1392 22.76 15H26.76C26.76 14.1008 26.7464 13.0584 26.7195 11.8746L22.7205 11.9654ZM22.76 15C22.76 15.8607 22.747 16.858 22.7205 17.9935L26.7195 18.0865C26.7464 16.9287 26.76 15.8993 26.76 15H22.76ZM22.7218 17.9541C22.625 20.2055 22.1465 21.9146 21.3976 23.1835L24.8424 25.2165C26.0135 23.2321 26.6017 20.8345 26.7182 18.1259L22.7218 17.9541ZM21.3853 23.2047C20.6767 24.4396 19.6394 25.3719 18.1927 26.0102L19.8073 29.6698C21.9872 28.7081 23.6966 27.2137 24.8547 25.1953L21.3853 23.2047ZM18.2056 26.0046C16.7398 26.639 14.8285 27 12.4 27V31C15.1982 31 17.6869 30.5877 19.7944 29.6754L18.2056 26.0046ZM12.4 27H1.8V31H12.4V27ZM7.96 25.24H12.2V21.24H7.96V25.24ZM12.2 25.24C13.5305 25.24 14.7893 25.0414 15.8822 24.534L14.1978 20.906C13.7974 21.0919 13.1628 21.24 12.2 21.24V25.24ZM15.9095 24.5211C17.0897 23.9514 17.9914 23.0497 18.5611 21.8695L14.9589 20.1305C14.782 20.497 14.537 20.742 14.1705 20.9189L15.9095 24.5211ZM18.5364 21.9188C19.1246 20.7818 19.369 19.4365 19.3995 18.0025L15.4005 17.9175C15.3776 18.9902 15.1954 19.6715 14.9836 20.0812L18.5364 21.9188ZM19.3953 18.0976C19.451 17.2898 19.48 16.5493 19.48 15.88H15.48C15.48 16.4373 15.4557 17.0836 15.4047 17.8224L19.3953 18.0976ZM19.4781 15.9669C19.5073 15.2957 19.5073 14.6243 19.4781 13.9531L15.4819 14.1269C15.506 14.6823 15.506 15.2377 15.4819 15.7931L19.4781 15.9669ZM19.48 14.04C19.48 13.3701 19.4509 12.6417 19.3949 11.8575L15.4051 12.1425C15.4557 12.8516 15.48 13.4832 15.48 14.04H19.48ZM19.3991 11.9412C19.3375 9.84509 18.7725 7.89785 17.3075 6.56209L14.6125 9.51791C14.9608 9.83549 15.3558 10.5282 15.4009 12.0588L19.3991 11.9412ZM17.3523 6.6042C15.9631 5.25712 14.0531 4.76 12 4.76V8.76C13.4669 8.76 14.1969 9.11621 14.5677 9.4758L17.3523 6.6042ZM12 4.76H7.96V8.76H12V4.76ZM5.96 6.76V23.24H9.96V6.76H5.96ZM29.7128 28.72L31.127 27.3058L29.7128 28.72ZM29.7128 1.28L31.127 2.69422L31.127 2.69421L29.7128 1.28ZM49.8328 6.48L51.247 7.89422L51.247 7.89421L49.8328 6.48ZM36.3528 6.76V4.76H34.3528V6.76H36.3528ZM36.3528 12.16H34.3528V14.16H36.3528V12.16ZM48.9528 12.48L47.4477 13.797L47.4915 13.8471L47.5386 13.8942L48.9528 12.48ZM48.9528 17.4L50.367 18.8142L50.4141 18.7671L50.458 18.717L48.9528 17.4ZM36.3528 17.68V15.68H34.3528V17.68H36.3528ZM36.3528 23.24H34.3528V25.24H36.3528V23.24ZM50.1528 23.52L48.7386 24.9342L48.7386 24.9342L50.1528 23.52ZM50.1528 28.72L48.7386 27.3058L48.7386 27.3058L50.1528 28.72ZM30.4328 27C30.4999 27 30.6167 27.0112 30.7577 27.066C30.9028 27.1224 31.0293 27.2081 31.127 27.3058L28.2986 30.1342C28.9037 30.7393 29.6736 31 30.4328 31V27ZM31.127 27.3058C31.2247 27.4035 31.3104 27.53 31.3668 27.6751C31.4216 27.8161 31.4328 27.9329 31.4328 28H27.4328C27.4328 28.7592 27.6935 29.5291 28.2986 30.1342L31.127 27.3058ZM31.4328 28V2H27.4328V28H31.4328ZM31.4328 2C31.4328 2.06713 31.4216 2.18393 31.3668 2.32489C31.3104 2.46996 31.2247 2.59651 31.127 2.69422L28.2986 -0.134218C27.6935 0.470857 27.4328 1.24083 27.4328 2H31.4328ZM31.127 2.69421C31.0293 2.79192 30.9028 2.87759 30.7577 2.93401C30.6167 2.98882 30.4999 3 30.4328 3V-1C29.6736 -1 28.9037 -0.739287 28.2986 -0.134211L31.127 2.69421ZM30.4328 3H49.1128V-1H30.4328V3ZM49.1128 3C49.0457 3 48.9289 2.98882 48.7879 2.93401C48.6429 2.87759 48.5163 2.79192 48.4186 2.69421L51.247 -0.134214C50.642 -0.739286 49.872 -1 49.1128 -1V3ZM48.4186 2.69421C48.3209 2.59651 48.2352 2.46995 48.1788 2.32489C48.124 2.18393 48.1128 2.06713 48.1128 2H52.1128C52.1128 1.24083 51.8521 0.470861 51.247 -0.134214L48.4186 2.69421ZM48.1128 2V5.76H52.1128V2H48.1128ZM48.1128 5.76C48.1128 5.69287 48.124 5.57607 48.1788 5.43511C48.2352 5.29004 48.3209 5.1635 48.4186 5.06579L51.247 7.89421C51.8521 7.28913 52.1128 6.51917 52.1128 5.76H48.1128ZM48.4186 5.06578C48.5163 4.96807 48.6429 4.8824 48.7879 4.82599C48.9289 4.77117 49.0457 4.76 49.1128 4.76V8.76C49.872 8.76 50.6419 8.49929 51.247 7.89422L48.4186 5.06578ZM49.1128 4.76H36.3528V8.76H49.1128V4.76ZM34.3528 6.76V12.16H38.3528V6.76H34.3528ZM36.3528 14.16H48.2328V10.16H36.3528V14.16ZM48.2328 14.16C48.1325 14.16 47.9846 14.1406 47.8205 14.0676C47.6547 13.9939 47.5301 13.8912 47.4477 13.797L50.458 11.163C49.8767 10.4987 49.08 10.16 48.2328 10.16V14.16ZM47.5386 13.8942C47.4409 13.7965 47.3552 13.67 47.2988 13.5249C47.244 13.3839 47.2328 13.2671 47.2328 13.2H51.2328C51.2328 12.4408 50.9721 11.6709 50.367 11.0658L47.5386 13.8942ZM47.2328 13.2V16.68H51.2328V13.2H47.2328ZM47.2328 16.68C47.2328 16.5743 47.2524 16.4544 47.2988 16.3351C47.3445 16.2176 47.4033 16.1337 47.4477 16.083L50.458 18.717C50.9418 18.1641 51.2328 17.4633 51.2328 16.68H47.2328ZM47.5386 15.9858C47.6363 15.8881 47.7629 15.8024 47.9079 15.746C48.0489 15.6912 48.1657 15.68 48.2328 15.68V19.68C48.992 19.68 49.762 19.4193 50.367 18.8142L47.5386 15.9858ZM48.2328 15.68H36.3528V19.68H48.2328V15.68ZM34.3528 17.68V23.24H38.3528V17.68H34.3528ZM36.3528 25.24H49.4328V21.24H36.3528V25.24ZM49.4328 25.24C49.3657 25.24 49.2489 25.2288 49.1079 25.174C48.9629 25.1176 48.8363 25.0319 48.7386 24.9342L51.567 22.1058C50.962 21.5007 50.192 21.24 49.4328 21.24V25.24ZM48.7386 24.9342C48.6409 24.8365 48.5552 24.71 48.4988 24.5649C48.444 24.4239 48.4328 24.3071 48.4328 24.24H52.4328C52.4328 23.4808 52.1721 22.7109 51.567 22.1058L48.7386 24.9342ZM48.4328 24.24V28H52.4328V24.24H48.4328ZM48.4328 28C48.4328 27.9329 48.444 27.8161 48.4988 27.6751C48.5552 27.53 48.6409 27.4035 48.7386 27.3058L51.567 30.1342C52.1721 29.5291 52.4328 28.7592 52.4328 28H48.4328ZM48.7386 27.3058C48.8363 27.2081 48.9629 27.1224 49.1079 27.066C49.2489 27.0112 49.3657 27 49.4328 27V31C50.192 31 50.962 30.7393 51.567 30.1342L48.7386 27.3058ZM49.4328 27H30.4328V31H49.4328V27ZM58.7797 28.28L57.9751 30.111L57.9868 30.1162L57.9986 30.1212L58.7797 28.28ZM54.7797 25.28L53.1713 26.4688L54.7797 25.28ZM53.3397 21.36H51.3397V21.3984L51.3412 21.4369L53.3397 21.36ZM53.5797 20.8L52.1655 19.3858L53.5797 20.8ZM60.0997 20.72L58.9372 22.3475L58.9874 22.3833L59.0397 22.416L60.0997 20.72ZM60.6597 21.24L62.4244 20.2988L62.352 20.1631L62.2597 20.04L60.6597 21.24ZM61.5397 22.4L60.1255 23.8142L60.1498 23.8386L60.1751 23.8621L61.5397 22.4ZM63.0597 23.32L62.3309 25.1825L62.3786 25.2012L62.4272 25.2174L63.0597 23.32ZM68.8997 22.92L67.8707 21.205L67.8578 21.2128L67.845 21.2207L68.8997 22.92ZM69.4597 19.52L68.0918 20.9791L68.1168 21.0026L68.1427 21.0252L69.4597 19.52ZM67.3797 18.48L66.731 20.3719L66.763 20.3828L66.7952 20.3927L67.3797 18.48ZM63.6197 17.52L63.2077 19.4771L63.2211 19.4799L63.6197 17.52ZM58.4197 15.88L57.5388 17.6756L57.559 17.6855L57.5794 17.6949L58.4197 15.88ZM55.1797 13.2L53.5156 14.3094L53.5218 14.3187L53.5281 14.3279L55.1797 13.2ZM55.4197 4.68L53.8037 3.50165L53.7956 3.51275L53.7876 3.52396L55.4197 4.68ZM59.2997 1.68L58.5012 -0.153671L59.2997 1.68ZM70.0197 1.32L69.3655 3.21L69.3765 3.21376L70.0197 1.32ZM73.5797 3.24L74.8601 1.70356L74.8601 1.70355L73.5797 3.24ZM75.7397 5.8L73.9721 6.73577L73.9887 6.76716L74.0064 6.79793L75.7397 5.8ZM76.5397 8.4H78.5397V8.36876L78.5387 8.33753L76.5397 8.4ZM76.2997 9L77.7139 10.4142L77.7682 10.3599L77.8182 10.3016L76.2997 9ZM69.6597 9.08L68.7653 10.8689L69.6597 9.08ZM69.0997 8.56L67.1702 9.08623L67.2556 9.39935L67.4356 9.6694L69.0997 8.56ZM67.8197 7.04L66.6951 8.69385L66.7327 8.71945L66.7715 8.74332L67.8197 7.04ZM62.4197 7L63.4797 8.696L63.4888 8.69032L63.4978 8.68454L62.4197 7ZM61.9797 10.28L60.4683 11.5899L60.4924 11.6177L60.5176 11.6446L61.9797 10.28ZM63.7797 11.32L63.1109 13.2049L63.1202 13.2082L63.1295 13.2114L63.7797 11.32ZM67.2597 12.24L66.8334 14.194L66.8628 14.2005L66.8924 14.206L67.2597 12.24ZM73.1397 13.96L72.2975 15.774L72.3109 15.7802L72.3244 15.7863L73.1397 13.96ZM76.4197 16.6L74.7307 17.6711L74.7367 17.6806L74.7428 17.69L76.4197 16.6ZM75.8997 25.36L74.3227 24.1299L74.3193 24.1344L75.8997 25.36ZM71.6597 28.36L72.374 30.2281L71.6597 28.36ZM65.4197 27.4C62.9227 27.4 60.9967 27.048 59.5608 26.4388L57.9986 30.1212C60.0827 31.0053 62.5833 31.4 65.4197 31.4V27.4ZM59.5842 26.449C58.0617 25.78 57.04 24.9733 56.388 24.0912L53.1713 26.4688C54.3327 28.04 55.9776 29.2333 57.9751 30.111L59.5842 26.449ZM56.388 24.0912C55.6954 23.1541 55.3746 22.2287 55.3382 21.2831L51.3412 21.4369C51.4115 23.2646 52.0506 24.9525 53.1713 26.4688L56.388 24.0912ZM55.3397 21.36C55.3397 21.5103 55.31 21.6797 55.238 21.8478C55.1669 22.0136 55.0733 22.1348 54.9939 22.2142L52.1655 19.3858C51.6557 19.8956 51.3397 20.5816 51.3397 21.36H55.3397ZM54.9939 22.2142C54.9343 22.2738 54.8316 22.3566 54.6813 22.4223C54.5274 22.4897 54.3669 22.52 54.2197 22.52V18.52C53.3937 18.52 52.686 18.8652 52.1655 19.3858L54.9939 22.2142ZM54.2197 22.52H59.2597V18.52H54.2197V22.52ZM59.2597 22.52C59.3337 22.52 59.3353 22.5272 59.2864 22.5156C59.2367 22.5038 59.1003 22.464 58.9372 22.3475L61.2622 19.0925C60.5831 18.6075 59.8107 18.52 59.2597 18.52V22.52ZM59.0397 22.416C59.0376 22.4147 59.0371 22.414 59.0388 22.4156C59.0407 22.4173 59.048 22.4244 59.0597 22.44L62.2597 20.04C61.9608 19.6414 61.5944 19.2957 61.1597 19.024L59.0397 22.416ZM58.895 22.1812C59.215 22.7812 59.635 23.3237 60.1255 23.8142L62.9539 20.9858C62.6977 20.7296 62.5311 20.4988 62.4244 20.2988L58.895 22.1812ZM60.1751 23.8621C60.7933 24.4391 61.529 24.8687 62.3309 25.1825L63.7885 21.4575C63.3637 21.2913 63.0861 21.1076 62.9043 20.9379L60.1751 23.8621ZM62.4272 25.2174C63.3327 25.5192 64.3476 25.64 65.4197 25.64V21.64C64.6251 21.64 64.0667 21.5475 63.6921 21.4226L62.4272 25.2174ZM65.4197 25.64C67.1084 25.64 68.7133 25.3896 69.9544 24.6193L67.845 21.2207C67.5394 21.4104 66.8243 21.64 65.4197 21.64V25.64ZM69.9287 24.635C71.2386 23.8491 72.0997 22.5908 72.0997 20.96H68.0997C68.0997 21.0042 68.0945 21.0236 68.094 21.0257C68.0937 21.0268 68.0944 21.025 68.094 21.0257C68.0931 21.0272 68.0829 21.0438 68.0514 21.0735C68.019 21.1041 67.9626 21.1499 67.8707 21.205L69.9287 24.635ZM72.0997 20.96C72.0997 19.8195 71.6544 18.7828 70.7767 18.0148L68.1427 21.0252C68.1512 21.0326 68.1482 21.0314 68.1397 21.02C68.1309 21.0082 68.1207 20.9918 68.1121 20.9723C68.1035 20.9529 68.0997 20.9383 68.0985 20.9322C68.0974 20.9268 68.0997 20.9348 68.0997 20.96H72.0997ZM70.8276 18.0609C70.0718 17.3524 69.0353 16.8946 67.9641 16.5673L66.7952 20.3927C67.6441 20.6521 67.9942 20.8876 68.0918 20.9791L70.8276 18.0609ZM68.0283 16.5881C66.9787 16.2282 65.6309 15.8881 64.0183 15.5601L63.2211 19.4799C64.7551 19.7919 65.914 20.0918 66.731 20.3719L68.0283 16.5881ZM64.0317 15.5629C62.1106 15.1585 60.5288 14.6525 59.2599 14.0651L57.5794 17.6949C59.1905 18.4408 61.0754 19.0282 63.2077 19.4771L64.0317 15.5629ZM59.3005 14.0844C58.1387 13.5145 57.3492 12.8304 56.8313 12.0721L53.5281 14.3279C54.5035 15.7563 55.874 16.8589 57.5388 17.6756L59.3005 14.0844ZM56.8438 12.0906C56.3616 11.3673 56.0597 10.3893 56.0597 9.04H52.0597C52.0597 10.9974 52.5044 12.7927 53.5156 14.3094L56.8438 12.0906ZM56.0597 9.04C56.0597 7.81114 56.3937 6.76499 57.0517 5.83603L53.7876 3.52396C52.6323 5.15501 52.0597 7.01553 52.0597 9.04H56.0597ZM57.0357 5.85834C57.732 4.90348 58.7249 4.11175 60.0982 3.51367L58.5012 -0.153671C56.5679 0.688251 54.9741 1.89652 53.8037 3.50165L57.0357 5.85834ZM60.0982 3.51367C61.4438 2.92769 63.1195 2.6 65.1797 2.6V-1.4C62.7065 -1.4 60.4622 -1.0077 58.5012 -0.153671L60.0982 3.51367ZM65.1797 2.6C66.8511 2.6 68.2349 2.81862 69.3655 3.20997L70.6739 -0.569973C69.0311 -1.13863 67.1883 -1.4 65.1797 -1.4V2.6ZM69.3765 3.21376C70.6015 3.62978 71.5608 4.16097 72.2993 4.77644L74.8601 1.70355C73.6786 0.719028 72.2646 -0.0297794 70.6628 -0.573764L69.3765 3.21376ZM72.2993 4.77644C73.1018 5.4452 73.6373 6.10338 73.9721 6.73577L77.5073 4.86422C76.8821 3.68329 75.9776 2.6348 74.8601 1.70356L72.2993 4.77644ZM74.0064 6.79793C74.3799 7.4466 74.5261 7.99506 74.5407 8.46247L78.5387 8.33753C78.5 7.09827 78.1128 5.9134 77.4729 4.80207L74.0064 6.79793ZM74.5397 8.4C74.5397 8.2497 74.5692 8.10111 74.6227 7.96722C74.6748 7.83715 74.7383 7.74838 74.7812 7.69842L77.8182 10.3016C78.2387 9.81096 78.5397 9.16258 78.5397 8.4H74.5397ZM74.8855 7.58578C74.9872 7.4841 75.1228 7.38868 75.2869 7.32304C75.4487 7.25834 75.5943 7.24 75.6997 7.24V11.24C76.4344 11.24 77.1543 10.9738 77.7139 10.4142L74.8855 7.58578ZM75.6997 7.24H70.4197V11.24H75.6997V7.24ZM70.4197 7.24C70.3668 7.24 70.4332 7.23069 70.5541 7.29114L68.7653 10.8689C69.3128 11.1426 69.8859 11.24 70.4197 11.24V7.24ZM70.5541 7.29115C70.7112 7.3697 70.771 7.46148 70.7638 7.4506L67.4356 9.6694C67.7483 10.1385 68.1815 10.577 68.7653 10.8689L70.5541 7.29115ZM71.0292 8.03377C70.6956 6.81036 69.8441 5.93743 68.8679 5.33668L66.7715 8.74332C66.9765 8.86948 67.0812 8.9705 67.1299 9.02827C67.1732 9.07968 67.1731 9.09717 67.1702 9.08623L71.0292 8.03377ZM68.9443 5.38615C67.8468 4.63986 66.5347 4.36 65.1797 4.36V8.36C66.0114 8.36 66.4592 8.53347 66.6951 8.69385L68.9443 5.38615ZM65.1797 4.36C63.7973 4.36 62.4501 4.60603 61.3416 5.31546L63.4978 8.68454C63.7227 8.54063 64.2154 8.36 65.1797 8.36V4.36ZM61.3597 5.304C60.0498 6.12269 59.4597 7.44383 59.4597 8.88H63.4597C63.4597 8.70309 63.4922 8.6575 63.4809 8.67955C63.4761 8.68904 63.4683 8.70021 63.4605 8.70849C63.4534 8.71611 63.4562 8.71065 63.4797 8.696L61.3597 5.304ZM59.4597 8.88C59.4597 9.8905 59.8039 10.8232 60.4683 11.5899L63.4911 8.97014C63.4767 8.95356 63.4698 8.94292 63.4672 8.93851C63.4658 8.93615 63.4651 8.93476 63.4648 8.93424C63.4647 8.93396 63.4646 8.93379 63.4646 8.93373C63.4646 8.93367 63.4645 8.93364 63.4645 8.93363C63.4645 8.93361 63.4645 8.93354 63.4645 8.93338C63.4644 8.93322 63.4643 8.93291 63.4642 8.93241C63.4639 8.93147 63.4634 8.92939 63.4628 8.92593C63.4617 8.9193 63.4597 8.90464 63.4597 8.88H59.4597ZM60.5176 11.6446C61.2033 12.3794 62.1449 12.8621 63.1109 13.2049L64.4485 9.43514C63.7612 9.19125 63.5027 8.98064 63.4418 8.91536L60.5176 11.6446ZM63.1295 13.2114C64.0883 13.5409 65.3335 13.8668 66.8334 14.194L67.686 10.286C66.2526 9.97321 65.1778 9.68573 64.4298 9.42863L63.1295 13.2114ZM66.8924 14.206C69.228 14.6423 71.0106 15.1765 72.2975 15.774L73.9819 12.146C72.2822 11.3568 70.1447 10.7444 67.627 10.274L66.8924 14.206ZM72.3244 15.7863C73.5529 16.3347 74.2972 16.9876 74.7307 17.6711L78.1087 15.5289C77.1555 14.0258 75.7132 12.9186 73.955 12.1337L72.3244 15.7863ZM74.7428 17.69C75.1737 18.3529 75.4597 19.2934 75.4597 20.64H79.4597C79.4597 18.7333 79.0523 16.9804 78.0966 15.51L74.7428 17.69ZM75.4597 20.64C75.4597 22.0421 75.0681 23.1743 74.3227 24.1299L77.4767 26.5901C78.8113 24.8791 79.4597 22.8646 79.4597 20.64H75.4597ZM74.3193 24.1344C73.5669 25.1045 72.4769 25.9063 70.9454 26.4919L72.374 30.2281C74.4691 29.427 76.2058 28.2288 77.4801 26.5856L74.3193 24.1344ZM70.9454 26.4919C69.4022 27.0819 67.5718 27.4 65.4197 27.4V31.4C67.9609 31.4 70.2905 31.0247 72.374 30.2281L70.9454 26.4919ZM81.7441 28.72L83.1583 27.3058L81.7441 28.72ZM81.7441 1.28L83.1583 2.69422L83.1583 2.69421L81.7441 1.28ZM100.304 1.96L101.104 0.12692V0.126919L100.304 1.96ZM103.544 4.72L101.812 5.72055L101.826 5.74347L101.839 5.76603L103.544 4.72ZM104.064 11.48L102.275 10.5856L102.269 10.5989L102.262 10.6124L104.064 11.48ZM102.744 13.28L101.406 11.7934L101.387 11.8105L101.369 11.8281L102.744 13.28ZM101.304 14.32L100.452 12.5104L96.6196 14.3141L100.448 16.1275L101.304 14.32ZM103.984 16.68L102.351 17.8349L102.361 17.848L102.37 17.861L103.984 16.68ZM103.984 25.08L102.288 24.02L102.282 24.0298L103.984 25.08ZM100.544 28L101.359 29.8263L101.367 29.823L101.374 29.8196L100.544 28ZM88.6241 23.8H86.6241V25.8H88.6241V23.8ZM96.8241 22.8L98.3255 24.1213V24.1213L96.8241 22.8ZM96.7841 18.16L95.3098 19.5114L95.3247 19.5278L95.3401 19.5438L96.7841 18.16ZM88.6241 17.2V15.2H86.6241V17.2H88.6241ZM88.6241 12.12H86.6241V14.12H88.6241V12.12ZM96.3041 11.28L94.8898 9.86579L94.8726 9.88303L94.8558 9.90069L96.3041 11.28ZM96.3041 7.04L94.8558 8.41931L94.8894 8.45463L94.9248 8.48828L96.3041 7.04ZM88.6241 6.2V4.2H86.6241V6.2H88.6241ZM82.4641 27C82.5312 27 82.648 27.0112 82.789 27.066C82.934 27.1224 83.0606 27.2081 83.1583 27.3058L80.3298 30.1342C80.9349 30.7393 81.7049 31 82.4641 31V27ZM83.1583 27.3058C83.256 27.4035 83.3417 27.53 83.3981 27.6751C83.4529 27.8161 83.4641 27.9329 83.4641 28H79.4641C79.4641 28.7592 79.7248 29.5291 80.3298 30.1342L83.1583 27.3058ZM83.4641 28V2H79.4641V28H83.4641ZM83.4641 2C83.4641 2.06713 83.4529 2.18393 83.3981 2.32489C83.3417 2.46996 83.256 2.59651 83.1583 2.69422L80.3298 -0.134218C79.7248 0.470857 79.4641 1.24083 79.4641 2H83.4641ZM83.1583 2.69421C83.0606 2.79192 82.934 2.87759 82.789 2.93401C82.648 2.98882 82.5312 3 82.4641 3V-1C81.7049 -1 80.9349 -0.739287 80.3298 -0.134211L83.1583 2.69421ZM82.4641 3H94.6641V-1H82.4641V3ZM94.6641 3C96.7922 3 98.3742 3.30002 99.5042 3.79308L101.104 0.126919C99.3005 -0.660022 97.1226 -1 94.6641 -1V3ZM99.5042 3.79308C100.642 4.28966 101.365 4.94576 101.812 5.72055L105.276 3.71944C104.337 2.09424 102.899 0.91034 101.104 0.12692L99.5042 3.79308ZM101.839 5.76603C102.334 6.57145 102.624 7.59476 102.624 8.92H106.624C106.624 6.9919 106.194 5.21522 105.249 3.67397L101.839 5.76603ZM102.624 8.92C102.624 9.6162 102.49 10.1556 102.275 10.5856L105.853 12.3744C106.385 11.3111 106.624 10.1438 106.624 8.92H102.624ZM102.262 10.6124C102.015 11.1245 101.725 11.5063 101.406 11.7934L104.082 14.7666C104.83 14.0937 105.419 13.2755 105.866 12.3476L102.262 10.6124ZM101.369 11.8281C100.96 12.2147 100.654 12.4155 100.452 12.5104L102.156 16.1296C102.861 15.7979 103.514 15.3053 104.12 14.7319L101.369 11.8281ZM100.448 16.1275C101.095 16.4341 101.738 16.9677 102.351 17.8349L105.617 15.5251C104.684 14.2057 103.54 13.1659 102.16 12.5125L100.448 16.1275ZM102.37 17.861C102.898 18.5829 103.184 19.4409 103.184 20.52H107.184C107.184 18.6657 106.67 16.9638 105.598 15.499L102.37 17.861ZM103.184 20.52C103.184 21.9685 102.858 23.1076 102.288 24.02L105.68 26.14C106.71 24.4924 107.184 22.5915 107.184 20.52H103.184ZM102.282 24.0298C101.744 24.902 100.924 25.6286 99.7141 26.1804L101.374 29.8196C103.205 28.9847 104.678 27.7647 105.686 26.1302L102.282 24.0298ZM99.7288 26.1737C98.5629 26.6942 97.0196 27 95.0241 27V31C97.4019 31 99.5385 30.6392 101.359 29.8263L99.7288 26.1737ZM95.0241 27H82.4641V31H95.0241V27ZM88.6241 25.8H94.2241V21.8H88.6241V25.8ZM94.2241 25.8C95.7669 25.8 97.2553 25.3374 98.3255 24.1213L95.3226 21.4787C95.2195 21.5959 94.9745 21.8 94.2241 21.8V25.8ZM98.3255 24.1213C99.2192 23.1057 99.7041 21.8809 99.7041 20.52H95.7041C95.7041 20.8657 95.6023 21.161 95.3226 21.4787L98.3255 24.1213ZM99.7041 20.52C99.7041 19.1011 99.2185 17.8097 98.228 16.7762L95.3401 19.5438C95.5763 19.7903 95.7041 20.0722 95.7041 20.52H99.7041ZM98.2584 16.8085C97.1903 15.6434 95.7324 15.2 94.2241 15.2V19.2C94.9558 19.2 95.2045 19.3966 95.3098 19.5114L98.2584 16.8085ZM94.2241 15.2H88.6241V19.2H94.2241V15.2ZM86.6241 17.2V23.8H90.6241V17.2H86.6241ZM88.6241 14.12H93.8641V10.12H88.6241V14.12ZM93.8641 14.12C95.274 14.12 96.7075 13.7564 97.7523 12.6593L94.8558 9.90069C94.834 9.92357 94.6408 10.12 93.8641 10.12V14.12ZM97.7183 12.6942C98.6967 11.7158 99.1441 10.4658 99.1441 9.12H95.1441C95.1441 9.53416 95.0314 9.72419 94.8898 9.86579L97.7183 12.6942ZM99.1441 9.12C99.1441 7.78195 98.6829 6.54367 97.6834 5.59172L94.9248 8.48828C95.0452 8.60299 95.1441 8.75138 95.1441 9.12H99.1441ZM97.7523 5.66069C96.7075 4.56357 95.274 4.2 93.8641 4.2V8.2C94.6408 8.2 94.834 8.39643 94.8558 8.41931L97.7523 5.66069ZM93.8641 4.2H88.6241V8.2H93.8641V4.2ZM86.6241 6.2V12.12H90.6241V6.2H86.6241ZM109.908 28.72L111.322 27.3058L109.908 28.72ZM109.908 1.28L111.322 2.69422L111.322 2.69421L109.908 1.28ZM129.628 3.4L128.369 4.95351L128.38 4.96279L128.392 4.97191L129.628 3.4ZM131.228 14.92L129.601 13.7575L129.593 13.7686L129.585 13.7798L131.228 14.92ZM127.628 17.88L126.813 16.0537L124.812 16.9471L125.884 18.8585L127.628 17.88ZM133.148 27.72L134.937 26.8256L134.916 26.783L134.892 26.7415L133.148 27.72ZM132.988 28.76L134.402 30.1742L134.402 30.1742L132.988 28.76ZM125.988 28.64L124.502 29.9779L124.537 30.017L124.574 30.0542L125.988 28.64ZM125.468 27.92L127.257 27.0256L127.251 27.0127L127.244 26.9998L125.468 27.92ZM120.908 19.12L122.684 18.1998L122.124 17.12H120.908V19.12ZM116.788 19.12V17.12H114.788V19.12H116.788ZM116.788 13.48H114.788V15.48H116.788V13.48ZM124.228 12.56L122.844 11.116L122.829 11.1307L122.814 11.1458L124.228 12.56ZM124.268 7.52L122.794 8.87145L122.809 8.8878L122.824 8.90381L124.268 7.52ZM116.788 6.56V4.56H114.788V6.56H116.788ZM110.628 27C110.695 27 110.812 27.0112 110.953 27.066C111.098 27.1224 111.225 27.2081 111.322 27.3058L108.494 30.1342C109.099 30.7393 109.869 31 110.628 31V27ZM111.322 27.3058C111.42 27.4035 111.506 27.53 111.562 27.6751C111.617 27.8161 111.628 27.9329 111.628 28H107.628C107.628 28.7592 107.889 29.5291 108.494 30.1342L111.322 27.3058ZM111.628 28V2H107.628V28H111.628ZM111.628 2C111.628 2.06713 111.617 2.18393 111.562 2.32489C111.506 2.46996 111.42 2.59651 111.322 2.69422L108.494 -0.134218C107.889 0.470857 107.628 1.24083 107.628 2H111.628ZM111.322 2.69421C111.225 2.79192 111.098 2.87759 110.953 2.93401C110.812 2.98882 110.695 3 110.628 3V-1C109.869 -1 109.099 -0.739287 108.494 -0.134211L111.322 2.69421ZM110.628 3H121.508V-1H110.628V3ZM121.508 3C124.651 3 126.86 3.7301 128.369 4.95351L130.888 1.84649C128.45 -0.130104 125.245 -1 121.508 -1V3ZM128.392 4.97191C129.837 6.10892 130.628 7.72791 130.628 10.12H134.628C134.628 6.69875 133.419 3.83774 130.865 1.82809L128.392 4.97191ZM130.628 10.12C130.628 11.6732 130.251 12.8476 129.601 13.7575L132.856 16.0825C134.072 14.3791 134.628 12.3534 134.628 10.12H130.628ZM129.585 13.7798C128.893 14.7777 127.983 15.5315 126.813 16.0537L128.443 19.7063C130.26 18.8952 131.75 17.6756 132.871 16.0602L129.585 13.7798ZM125.884 18.8585L131.404 28.6985L134.892 26.7415L129.372 16.9015L125.884 18.8585ZM131.359 28.6144C131.346 28.5872 131.268 28.4246 131.268 28.16H135.268C135.268 27.6287 135.111 27.1728 134.937 26.8256L131.359 28.6144ZM131.268 28.16C131.268 27.9642 131.313 27.7797 131.386 27.6242C131.455 27.4761 131.534 27.3858 131.574 27.3458L134.402 30.1742C134.87 29.7069 135.268 29.0238 135.268 28.16H131.268ZM131.574 27.3458C131.676 27.2441 131.811 27.1487 131.975 27.083C132.137 27.0183 132.283 27 132.388 27V31C133.123 31 133.843 30.7338 134.402 30.1742L131.574 27.3458ZM132.388 27H127.108V31H132.388V27ZM127.108 27C127.005 27 127.001 26.9869 127.06 27.0059C127.129 27.028 127.265 27.0885 127.402 27.2258L124.574 30.0542C125.339 30.8194 126.33 31 127.108 31V27ZM127.475 27.3021C127.393 27.2112 127.337 27.1404 127.299 27.089C127.262 27.0366 127.252 27.0159 127.257 27.0256L123.679 28.8144C123.896 29.2475 124.195 29.6377 124.502 29.9779L127.475 27.3021ZM127.244 26.9998L122.684 18.1998L119.132 20.0402L123.692 28.8402L127.244 26.9998ZM120.908 17.12H116.788V21.12H120.908V17.12ZM114.788 19.12V28H118.788V19.12H114.788ZM114.788 28C114.788 27.9329 114.799 27.8161 114.854 27.6751C114.911 27.53 114.996 27.4035 115.094 27.3058L117.922 30.1342C118.527 29.5291 118.788 28.7592 118.788 28H114.788ZM115.094 27.3058C115.192 27.2081 115.318 27.1224 115.463 27.066C115.604 27.0112 115.721 27 115.788 27V31C116.547 31 117.317 30.7393 117.922 30.1342L115.094 27.3058ZM115.788 27H110.628V31H115.788V27ZM116.788 15.48H121.428V11.48H116.788V15.48ZM121.428 15.48C122.975 15.48 124.514 15.1021 125.642 13.9742L122.814 11.1458C122.715 11.2446 122.388 11.48 121.428 11.48V15.48ZM125.612 14.004C126.724 12.9381 127.188 11.5325 127.188 10.04H123.188C123.188 10.6808 123.012 10.9552 122.844 11.116L125.612 14.004ZM127.188 10.04C127.188 8.57996 126.743 7.2123 125.712 6.13619L122.824 8.90381C123.02 9.1077 123.188 9.42004 123.188 10.04H127.188ZM125.742 6.16855C124.621 4.94467 123.012 4.56 121.428 4.56V8.56C122.457 8.56 122.742 8.81533 122.794 8.87145L125.742 6.16855ZM121.428 4.56H116.788V8.56H121.428V4.56ZM114.788 6.56V13.48H118.788V6.56H114.788ZM135.084 28.76L133.566 30.0616L133.666 30.1784L133.783 30.2785L135.084 28.76ZM134.884 27.8L133.006 27.1125L132.97 27.2121L132.944 27.3149L134.884 27.8ZM144.284 2.12L146.163 2.80748L146.192 2.72794L146.214 2.64623L144.284 2.12ZM144.764 1.36L146.093 2.85484L146.102 2.84659L144.764 1.36ZM152.804 1.36L151.39 2.77421L151.468 2.85254L151.555 2.92173L152.804 1.36ZM153.324 2.12L151.395 2.64623L151.417 2.72661L151.445 2.80489L153.324 2.12ZM162.684 27.8L160.805 28.4849L160.844 28.5922L160.896 28.6944L162.684 27.8ZM162.484 28.76L163.899 30.1742V30.1742L162.484 28.76ZM156.044 28.72L154.539 30.037L154.627 30.1374L154.727 30.2252L156.044 28.72ZM155.684 28.16L157.582 27.5276L157.568 27.4863L157.552 27.4457L155.684 28.16ZM154.124 24.08L155.992 23.3657L155.501 22.08H154.124V24.08ZM143.444 24.08V22.08H142.055L141.57 23.3818L143.444 24.08ZM141.924 28.16L140.05 27.4618L140.038 27.4945L140.027 27.5275L141.924 28.16ZM141.564 28.72L142.979 30.1342L143.026 30.0871L143.07 30.037L141.564 28.72ZM145.084 18.32L143.196 17.6618L142.269 20.32H145.084V18.32ZM152.524 18.32V20.32H155.359L154.409 17.6491L152.524 18.32ZM148.764 7.76L150.648 7.08914L148.744 1.74057L146.876 7.10185L148.764 7.76ZM135.684 27C135.835 27 135.983 27.0295 136.117 27.083C136.247 27.1351 136.336 27.1987 136.386 27.2415L133.783 30.2785C134.273 30.699 134.922 31 135.684 31V27ZM136.603 27.4584C136.646 27.5084 136.709 27.5971 136.761 27.7272C136.815 27.8611 136.844 28.0097 136.844 28.16H132.844C132.844 28.9226 133.145 29.571 133.566 30.0616L136.603 27.4584ZM136.844 28.16C136.844 28.16 136.844 28.16 136.844 28.16C136.844 28.16 136.844 28.16 136.844 28.16C136.844 28.16 136.844 28.16 136.844 28.16C136.844 28.16 136.844 28.1601 136.844 28.1601C136.844 28.1602 136.844 28.1603 136.844 28.1605C136.844 28.1608 136.844 28.1613 136.844 28.1619C136.844 28.1632 136.844 28.1651 136.844 28.1676C136.844 28.1727 136.843 28.1805 136.842 28.1909C136.84 28.2113 136.835 28.2435 136.825 28.2851L132.944 27.3149C132.87 27.6096 132.844 27.8965 132.844 28.16H136.844ZM136.763 28.4875L146.163 2.80748L142.406 1.43252L133.006 27.1125L136.763 28.4875ZM146.214 2.64623C146.202 2.68813 146.183 2.73441 146.155 2.77798C146.128 2.82082 146.103 2.84579 146.093 2.85481L143.436 -0.134818C142.923 0.321069 142.543 0.904651 142.355 1.59376L146.214 2.64623ZM146.102 2.84659C146.02 2.92107 145.932 2.96551 145.867 2.98736C145.808 3.00709 145.792 3 145.844 3V-1C145.032 -1 144.15 -0.77745 143.426 -0.126591L146.102 2.84659ZM145.844 3H151.764V-1H145.844V3ZM151.764 3C151.819 3 151.79 3.00767 151.71 2.97997C151.621 2.9491 151.501 2.88522 151.39 2.77421L154.219 -0.0542154C153.491 -0.781857 152.564 -1 151.764 -1V3ZM151.555 2.92173C151.551 2.91863 151.52 2.89306 151.484 2.83937C151.446 2.78374 151.414 2.71684 151.395 2.64623L155.254 1.59376C155.049 0.842332 154.608 0.242009 154.054 -0.201737L151.555 2.92173ZM151.445 2.80489L160.805 28.4849L164.563 27.1151L155.203 1.4351L151.445 2.80489ZM160.896 28.6944C160.794 28.492 160.764 28.3001 160.764 28.16H164.764C164.764 27.7532 164.681 27.3213 164.473 26.9056L160.896 28.6944ZM160.764 28.16C160.764 27.9642 160.809 27.7797 160.882 27.6242C160.951 27.4761 161.03 27.3858 161.07 27.3458L163.899 30.1742C164.366 29.7069 164.764 29.0238 164.764 28.16H160.764ZM161.07 27.3458C161.172 27.2441 161.308 27.1487 161.472 27.083C161.633 27.0183 161.779 27 161.884 27V31C162.619 31 163.339 30.7338 163.899 30.1742L161.07 27.3458ZM161.884 27H156.964V31H161.884V27ZM156.964 27C156.851 27 157.085 26.9728 157.361 27.2148L154.727 30.2252C155.431 30.8405 156.278 31 156.964 31V27ZM157.55 27.403C157.504 27.3511 157.491 27.3301 157.497 27.3385C157.5 27.3438 157.511 27.3613 157.526 27.3906C157.54 27.4197 157.561 27.4657 157.582 27.5276L153.787 28.7924C153.963 29.3194 154.281 29.7415 154.539 30.037L157.55 27.403ZM157.552 27.4457L155.992 23.3657L152.256 24.7943L153.816 28.8743L157.552 27.4457ZM154.124 22.08H143.444V26.08H154.124V22.08ZM141.57 23.3818L140.05 27.4618L143.799 28.8582L145.319 24.7782L141.57 23.3818ZM140.027 27.5275C140.048 27.4657 140.068 27.4197 140.083 27.3906C140.098 27.3613 140.109 27.3438 140.112 27.3385C140.117 27.3301 140.105 27.3511 140.059 27.403L143.07 30.037C143.328 29.7415 143.646 29.3194 143.822 28.7925L140.027 27.5275ZM140.15 27.3058C140.349 27.1069 140.545 27.0332 140.624 27.01C140.698 26.9884 140.705 27 140.604 27V31C141.233 31 142.224 30.8886 142.979 30.1342L140.15 27.3058ZM140.604 27H135.684V31H140.604V27ZM145.084 20.32H152.524V16.32H145.084V20.32ZM154.409 17.6491L150.648 7.08914L146.88 8.43086L150.64 18.9909L154.409 17.6491ZM146.876 7.10185L143.196 17.6618L146.973 18.9781L150.653 8.41815L146.876 7.10185ZM170.051 27.8L168.145 28.4074L168.149 28.4199L168.153 28.4325L170.051 27.8ZM161.891 2.2L163.796 1.59261L163.774 1.52404L163.748 1.45722L161.891 2.2ZM162.051 1.28L163.465 2.69421V2.69421L162.051 1.28ZM169.091 2.04L167.15 2.52507L167.163 2.57479L167.178 2.62381L169.091 2.04ZM174.731 20.52L172.818 21.1038L174.724 27.3494L176.642 21.1076L174.731 20.52ZM180.411 2.04L178.538 1.33776L178.517 1.39449L178.499 1.45241L180.411 2.04ZM180.851 1.36L179.436 -0.0542154L179.395 -0.0126562L179.356 0.0312719L180.851 1.36ZM187.411 1.28L185.892 2.58158L185.992 2.69839L186.109 2.79851L187.411 1.28ZM187.611 2.2L185.754 1.45723L185.727 1.52404L185.705 1.59261L187.611 2.2ZM179.451 27.8L181.348 28.4325L181.352 28.4199L181.356 28.4074L179.451 27.8ZM178.891 28.64L177.553 27.1534L177.514 27.1886L177.476 27.2258L178.891 28.64ZM171.691 27C171.638 27 171.654 26.9929 171.713 27.0126C171.779 27.0345 171.866 27.0789 171.949 27.1534L169.273 30.1266C169.996 30.7774 170.878 31 171.691 31V27ZM171.949 27.1534C171.939 27.1452 171.935 27.14 171.933 27.1382C171.932 27.1365 171.932 27.1373 171.935 27.1406C171.937 27.144 171.94 27.1486 171.942 27.1541C171.945 27.1595 171.947 27.1643 171.948 27.1675L168.153 28.4325C168.376 29.1017 168.766 29.6703 169.273 30.1266L171.949 27.1534ZM171.956 27.1926L163.796 1.59261L159.985 2.80739L168.145 28.4074L171.956 27.1926ZM163.748 1.45722C163.758 1.4832 163.811 1.62076 163.811 1.84H159.811C159.811 2.27257 159.917 2.65013 160.034 2.94278L163.748 1.45722ZM163.811 1.84C163.811 1.99027 163.781 2.15974 163.709 2.32784C163.638 2.49363 163.544 2.61481 163.465 2.69421L160.636 -0.134216C160.127 0.375607 159.811 1.06156 159.811 1.84H163.811ZM163.465 2.69421C163.405 2.75382 163.303 2.83657 163.152 2.90231C162.998 2.96966 162.838 3 162.691 3V-1C161.865 -1 161.157 -0.654767 160.636 -0.134212L163.465 2.69421ZM162.691 3H167.651V-1H162.691V3ZM167.651 3C167.679 3 167.633 3.00414 167.543 2.97177C167.445 2.93653 167.334 2.87155 167.236 2.77421L170.065 -0.0542154C169.359 -0.759996 168.464 -1 167.651 -1V3ZM167.236 2.77421C167.281 2.8188 167.281 2.82705 167.261 2.7965C167.242 2.76561 167.188 2.67415 167.15 2.52507L171.031 1.55493C170.854 0.848257 170.433 0.314162 170.065 -0.0542154L167.236 2.77421ZM167.178 2.62381L172.818 21.1038L176.644 19.9362L171.004 1.45619L167.178 2.62381ZM176.642 21.1076L182.322 2.62759L178.499 1.45241L172.819 19.9324L176.642 21.1076ZM182.283 2.74224C182.265 2.79227 182.251 2.81057 182.26 2.7965C182.269 2.78265 182.294 2.74655 182.345 2.68872L179.356 0.0312719C179.041 0.385604 178.732 0.820716 178.538 1.33776L182.283 2.74224ZM182.265 2.77421C182.167 2.87155 182.056 2.93653 181.958 2.97177C181.868 3.00414 181.822 3 181.851 3V-1C181.037 -1 180.142 -0.759997 179.436 -0.0542154L182.265 2.77421ZM181.851 3H186.811V-1H181.851V3ZM186.811 3C186.664 3 186.482 2.96979 186.295 2.88236C186.109 2.79553 185.976 2.67969 185.892 2.58158L188.929 -0.0215855C188.4 -0.639116 187.651 -1 186.811 -1V3ZM186.109 2.79851C186.035 2.73545 185.924 2.61803 185.832 2.43442C185.736 2.24373 185.691 2.03668 185.691 1.84H189.691C189.691 0.950643 189.267 0.237062 188.712 -0.238513L186.109 2.79851ZM185.691 1.84C185.691 1.62077 185.743 1.48321 185.754 1.45723L189.468 2.94277C189.585 2.65012 189.691 2.27256 189.691 1.84H185.691ZM185.705 1.59261L177.545 27.1926L181.356 28.4074L189.516 2.80739L185.705 1.59261ZM177.553 27.1675C177.554 27.1643 177.556 27.1595 177.559 27.1541C177.562 27.1486 177.564 27.144 177.567 27.1406C177.569 27.1373 177.57 27.1365 177.568 27.1382C177.566 27.14 177.562 27.1452 177.553 27.1534L180.229 30.1266C180.736 29.6703 181.125 29.1017 181.348 28.4325L177.553 27.1675ZM177.476 27.2258C177.601 27.1015 177.729 27.0391 177.808 27.0126C177.878 26.9894 177.89 27 177.811 27V31C178.599 31 179.557 30.8016 180.305 30.0542L177.476 27.2258ZM177.811 27H171.691V31H177.811V27ZM186.998 28.76L185.48 30.0616L185.58 30.1784L185.697 30.2785L186.998 28.76ZM186.798 27.8L184.92 27.1125L184.884 27.2121L184.858 27.3149L186.798 27.8ZM196.198 2.12L198.077 2.80748L198.106 2.72794L198.128 2.64623L196.198 2.12ZM196.678 1.36L198.007 2.85484L198.016 2.84659L196.678 1.36ZM204.718 1.36L203.304 2.77421L203.383 2.85254L203.469 2.92173L204.718 1.36ZM205.238 2.12L203.309 2.64623L203.331 2.72661L203.359 2.80489L205.238 2.12ZM214.598 27.8L212.719 28.4849L212.758 28.5922L212.81 28.6944L214.598 27.8ZM214.398 28.76L215.813 30.1742V30.1742L214.398 28.76ZM207.958 28.72L206.453 30.037L206.541 30.1374L206.641 30.2252L207.958 28.72ZM207.598 28.16L209.496 27.5276L209.482 27.4863L209.467 27.4457L207.598 28.16ZM206.038 24.08L207.907 23.3657L207.415 22.08H206.038V24.08ZM195.358 24.08V22.08H193.969L193.484 23.3818L195.358 24.08ZM193.838 28.16L191.964 27.4618L191.952 27.4945L191.941 27.5275L193.838 28.16ZM193.478 28.72L194.893 30.1342L194.94 30.0871L194.984 30.037L193.478 28.72ZM196.998 18.32L195.11 17.6618L194.184 20.32H196.998V18.32ZM204.438 18.32V20.32H207.274L206.323 17.6491L204.438 18.32ZM200.678 7.76L202.563 7.08914L200.658 1.74057L198.79 7.10185L200.678 7.76ZM187.598 27C187.749 27 187.897 27.0295 188.031 27.083C188.161 27.1351 188.25 27.1987 188.3 27.2415L185.697 30.2785C186.187 30.699 186.836 31 187.598 31V27ZM188.517 27.4584C188.56 27.5084 188.623 27.5971 188.675 27.7272C188.729 27.8611 188.758 28.0097 188.758 28.16H184.758C184.758 28.9226 185.059 29.571 185.48 30.0616L188.517 27.4584ZM188.758 28.16C188.758 28.16 188.758 28.16 188.758 28.16C188.758 28.16 188.758 28.16 188.758 28.16C188.758 28.16 188.758 28.16 188.758 28.16C188.758 28.16 188.758 28.1601 188.758 28.1601C188.758 28.1602 188.758 28.1603 188.758 28.1605C188.758 28.1608 188.758 28.1613 188.758 28.1619C188.758 28.1632 188.758 28.1651 188.758 28.1676C188.758 28.1727 188.757 28.1805 188.756 28.1909C188.754 28.2113 188.749 28.2435 188.739 28.2851L184.858 27.3149C184.784 27.6096 184.758 27.8965 184.758 28.16H188.758ZM188.677 28.4875L198.077 2.80748L194.32 1.43252L184.92 27.1125L188.677 28.4875ZM198.128 2.64623C198.117 2.68813 198.097 2.73441 198.069 2.77798C198.042 2.82082 198.017 2.84579 198.007 2.85481L195.35 -0.134818C194.837 0.321069 194.457 0.904651 194.269 1.59376L198.128 2.64623ZM198.016 2.84659C197.934 2.92107 197.846 2.96551 197.781 2.98736C197.722 3.00709 197.706 3 197.758 3V-1C196.946 -1 196.064 -0.77745 195.341 -0.126591L198.016 2.84659ZM197.758 3H203.678V-1H197.758V3ZM203.678 3C203.733 3 203.704 3.00767 203.624 2.97997C203.535 2.9491 203.415 2.88522 203.304 2.77421L206.133 -0.0542154C205.405 -0.781857 204.478 -1 203.678 -1V3ZM203.469 2.92173C203.465 2.91863 203.435 2.89306 203.398 2.83937C203.36 2.78374 203.328 2.71684 203.309 2.64623L207.168 1.59376C206.963 0.842332 206.523 0.242009 205.968 -0.201737L203.469 2.92173ZM203.359 2.80489L212.719 28.4849L216.478 27.1151L207.118 1.4351L203.359 2.80489ZM212.81 28.6944C212.708 28.492 212.678 28.3001 212.678 28.16H216.678C216.678 27.7532 216.595 27.3213 216.387 26.9056L212.81 28.6944ZM212.678 28.16C212.678 27.9642 212.724 27.7797 212.796 27.6242C212.865 27.4761 212.944 27.3858 212.984 27.3458L215.813 30.1742C216.28 29.7069 216.678 29.0238 216.678 28.16H212.678ZM212.984 27.3458C213.086 27.2441 213.222 27.1487 213.386 27.083C213.547 27.0183 213.693 27 213.798 27V31C214.533 31 215.253 30.7338 215.813 30.1742L212.984 27.3458ZM213.798 27H208.878V31H213.798V27ZM208.878 27C208.765 27 208.999 26.9728 209.275 27.2148L206.641 30.2252C207.345 30.8405 208.192 31 208.878 31V27ZM209.464 27.403C209.418 27.3511 209.405 27.3301 209.411 27.3385C209.414 27.3438 209.425 27.3613 209.44 27.3906C209.454 27.4197 209.475 27.4657 209.496 27.5276L205.701 28.7924C205.877 29.3194 206.195 29.7415 206.453 30.037L209.464 27.403ZM209.467 27.4457L207.907 23.3657L204.17 24.7943L205.73 28.8743L209.467 27.4457ZM206.038 22.08H195.358V26.08H206.038V22.08ZM193.484 23.3818L191.964 27.4618L195.713 28.8582L197.233 24.7782L193.484 23.3818ZM191.941 27.5275C191.962 27.4657 191.983 27.4197 191.997 27.3906C192.012 27.3613 192.023 27.3438 192.026 27.3385C192.031 27.3301 192.019 27.3511 191.973 27.403L194.984 30.037C195.242 29.7415 195.56 29.3194 195.736 28.7925L191.941 27.5275ZM192.064 27.3058C192.263 27.1069 192.459 27.0332 192.538 27.01C192.612 26.9884 192.619 27 192.518 27V31C193.147 31 194.138 30.8886 194.893 30.1342L192.064 27.3058ZM192.518 27H187.598V31H192.518V27ZM196.998 20.32H204.438V16.32H196.998V20.32ZM206.323 17.6491L202.563 7.08914L198.794 8.43086L202.554 18.9909L206.323 17.6491ZM198.79 7.10185L195.11 17.6618L198.887 18.9781L202.567 8.41815L198.79 7.10185Z" fill="white" mask="url(#path-1-outside-1_531_572)"/>
</svg>
