<svg width="40" height="40" viewBox="0 0 40 40" fill="none" xmlns="http://www.w3.org/2000/svg">
<path d="M9.8039 0H40V7.84294H9.8039C8.7835 7.84294 8 8.6269 8 9.64684V13.8824C8 14.9024 8.7835 15.6865 9.8039 15.6865H30.1966C31.2165 15.6865 32.0006 16.4698 32.0006 17.4904V21.7254C32.0006 22.7453 32.784 23.5294 33.8045 23.5294H38.196C39.2159 23.5294 40 24.3128 40 25.3333V29.5683C40 30.5888 39.2159 31.3724 38.196 31.3724H33.8045C32.784 31.3724 32.0006 32.1563 32.0006 33.1762V37.4118C32.0006 38.4318 31.2165 39.2159 30.1966 39.2159H0V31.3724H30.1947C31.2147 31.3724 31.9988 30.5888 31.9988 29.5683V25.3333C31.9988 24.3128 31.2147 23.5294 30.1947 23.5294H9.8039C8.7835 23.5294 8 22.7453 8 21.7254V17.4904C8 16.4698 7.21589 15.6865 6.19595 15.6865H1.80405C0.784113 15.6865 0 14.9024 0 13.8824V9.64684C0 8.6269 0.784113 7.84294 1.80405 7.84294H6.19595C7.21589 7.84294 8 7.05944 8 6.03889V1.8039C8 0.783354 8.7835 0 9.8039 0Z" fill="black"/>
</svg>
