<svg width="192" height="100" viewBox="0 0 192 100" fill="none" xmlns="http://www.w3.org/2000/svg">
<path d="M58.5822 51.9824H45.3502L46.8545 28.9841L38.262 51.9824H25.9752L45.4702 0.000335693H58.5445L57.0349 23.3135L65.7905 0.000335693H78.0771L58.5822 51.9824Z" fill="white"/>
<path d="M60.1775 51.9824L79.6727 0.000335693H91.9593L72.4641 51.9824H60.1775Z" fill="white"/>
<path d="M24.5583 34.0638C7.38839 54.2267 -8.80773 81.055 5.49824 93.41C19.3602 105.382 36.6875 98.2934 48.5017 93.5678C60.3158 88.8419 190.901 32.1342 190.901 32.1342C192.162 31.5043 191.925 30.7166 190.35 31.1105C189.714 31.2693 48.1866 69.6244 48.1866 69.6244C30.229 74.6652 9.75121 63.6779 24.5583 34.0638Z" fill="white"/>
<path d="M107.947 48.517L107.16 21.4233L125.737 1.02704L107.947 48.517ZM147.55 8.66387L150.852 0.000335693H126.232H126.121H113.362L100.488 15.595L106.431 0.000335693H93.9869L74.6494 51.9824H86.9361L95.1916 30.2443L95.7573 51.9824L133.457 51.9008L137.046 41.901H122.712L127.421 29.2992H139.235L142.87 19.6116H131.056L135.106 8.66387H147.55Z" fill="white"/>
</svg>
