<svg width="56" height="40" viewBox="0 0 56 40" fill="none" xmlns="http://www.w3.org/2000/svg">
<path d="M37.3316 30.6676L38.6341 28.4957C24.5967 28.2982 19.1698 22.8355 26.1885 16.188C31.3259 11.3177 42.0349 7.23706 52.5268 5.46003L53.6122 3.55136C40.9495 5.13095 26.6227 10.9886 20.3275 16.5829C11.934 24.2176 19.4592 30.536 37.2593 30.7334L37.3316 30.6676Z" fill="white"/>
<path d="M32.7007 34.749H34.7991L36.6804 31.6557C17.5056 31.4582 9.54618 24.6792 18.7356 16.518C25.3926 10.5287 40.0812 4.47363 53.9739 2.95986L54.8422 1.44609C39.2853 2.23588 20.9064 8.62004 12.7299 16.2547C2.67218 25.9297 10.9933 34.6832 32.7731 34.6832L32.7007 34.749Z" fill="white"/>
<path d="M12.8023 37.3175C20.9788 39.6869 29.6617 39.2262 32.2666 39.0287L34.2203 35.7379H32.0495C9.18444 35.7379 0.429136 26.2604 11.1381 16.3222C19.7487 8.29264 38.4894 1.77685 55.2041 1.11869L56 -0.000183105C36.5357 0.723793 14.9007 7.56866 5.1324 16.5196C-3.91234 24.8783 -0.800948 33.4344 12.8747 37.1859L12.73 37.3175H12.8023Z" fill="white"/>
<path d="M38.7788 30.6689H42.3967L43.265 28.5628H40.0812L38.8511 30.6689H38.7064H38.7788Z" fill="white"/>
<path d="M34.1479 38.9629C35.4504 38.9629 37.4041 38.7654 39.0683 38.568L40.2984 35.6063C38.8512 35.6063 37.1146 35.8037 35.9569 35.8037L34.2927 38.9629H34.1479Z" fill="white"/>
<path d="M36.4634 34.749C38.1276 34.749 39.5024 34.5516 40.7325 34.5516L41.9626 31.6557H38.2723L36.6081 34.6174L36.4634 34.749Z" fill="white"/>
</svg>
