<svg width="761" height="122" viewBox="0 0 761 122" fill="none" xmlns="http://www.w3.org/2000/svg">
<path d="M20.4521 105.818H28.3322C30.6781 105.764 32.7234 104.834 34.2272 103.192C35.731 101.551 36.5732 99.2527 36.6333 96.4622V69.8161C36.6333 67.0803 35.8513 64.837 34.2873 63.1409C32.7835 61.4447 30.6781 60.5693 28.1517 60.5693H20.4521C20.0912 60.5693 19.8506 60.7881 19.8506 61.1164V105.271C19.8506 105.6 20.0912 105.818 20.4521 105.818ZM0.481225 120.81C0.180459 120.537 0 120.263 0 119.935V46.4528C0 46.1245 0.0601528 45.7416 0.481225 45.5774C0.781992 45.3038 1.08276 45.1397 1.44368 45.1397H28.0916C33.746 45.1397 38.6785 46.1245 43.0096 47.9849C47.3406 49.8452 50.649 52.5262 52.995 55.9185C55.341 59.3655 56.544 63.305 56.544 67.7916V98.6508C56.544 103.137 55.4011 107.132 52.995 110.524C50.649 113.971 47.3406 116.597 43.0096 118.458C38.6785 120.318 33.6858 121.303 28.0916 121.303H1.44368C1.08276 121.303 0.661685 121.303 0.481225 121.029V120.81Z" fill="white"/>
<path d="M117.78 60.1853C117.479 60.4589 117.178 60.623 116.818 60.623H86.0191C85.6582 60.623 85.4176 60.8419 85.4176 61.1702V74.7395C85.4176 75.0677 85.6582 75.2866 86.0191 75.2866H104.667C105.028 75.2866 105.449 75.4508 105.629 75.7243C105.81 75.9979 106.11 76.2715 106.11 76.5998V89.4578C106.11 89.786 105.93 90.169 105.629 90.3332C105.328 90.4973 105.028 90.7709 104.667 90.7709H86.0191C85.6582 90.7709 85.4176 90.9898 85.4176 91.3181V105.216C85.4176 105.544 85.6582 105.763 86.0191 105.763H116.818C117.178 105.763 117.6 105.927 117.78 106.2C117.96 106.474 118.261 106.748 118.261 107.076V119.934C118.261 120.262 118.081 120.645 117.78 120.809C117.479 120.973 117.178 121.247 116.818 121.247H67.0107C66.6498 121.247 66.2287 121.192 66.0482 120.809C65.7475 120.536 65.567 120.262 65.567 119.934V46.4519C65.567 46.1236 65.6272 45.7406 66.0482 45.5765C66.349 45.3029 66.6498 45.1387 67.0107 45.1387H116.818C117.178 45.1387 117.6 45.3029 117.78 45.5765C118.021 45.85 118.261 46.1236 118.261 46.4519V59.3099C118.261 59.6382 118.081 60.0212 117.78 60.1853Z" fill="white"/>
<path d="M224.853 103.521C226.357 102.154 227.078 100.074 227.078 97.4481C227.078 94.8218 226.296 92.9068 224.853 91.4295C223.409 90.0069 221.364 89.2956 218.777 89.2956H210.536C210.175 89.2956 209.935 89.5145 209.935 89.8428V105.053C209.935 105.382 210.175 105.601 210.536 105.601H218.717C221.304 105.601 223.349 104.889 224.853 103.467V103.521ZM209.935 61.1175V74.9056C209.935 75.2339 210.175 75.4528 210.536 75.4528H217.574C220.401 75.4528 222.507 74.7415 223.95 73.5377C225.454 72.2793 226.176 70.419 226.176 68.0115C226.176 65.6041 225.394 63.7985 223.89 62.4853C222.387 61.1722 220.281 60.4609 217.634 60.4609H210.596C210.236 60.4609 209.995 60.6798 209.995 61.008L209.935 61.1175ZM239.229 115.723C234.177 119.389 227.56 121.14 219.559 121.14H191.648C191.287 121.14 190.866 121.085 190.686 120.702C190.385 120.428 190.205 120.155 190.205 119.826V46.3992C190.205 46.0709 190.265 45.6879 190.686 45.5237C190.987 45.2502 191.287 45.086 191.648 45.086H217.514C226.477 45.086 233.515 46.7822 238.267 50.2292C243.139 53.6762 245.606 58.9836 245.606 66.2607C245.606 73.5377 242.778 78.2979 237.305 81.4714C236.763 81.6902 236.763 81.9638 237.244 82.1827C243.741 85.958 246.989 91.8125 246.989 99.7461C246.989 107.68 244.403 112.221 239.35 115.778V115.613L239.229 115.723Z" fill="white"/>
<path d="M275.261 61.1165V76.546C275.261 76.8743 275.502 77.0932 275.863 77.0932H284.164C286.75 77.0932 288.796 76.3819 290.299 74.9593C291.803 73.5367 292.645 71.5123 292.645 68.9407C292.645 66.3691 291.863 64.3446 290.299 62.8126C288.796 61.39 286.69 60.624 284.164 60.624H275.863C275.502 60.624 275.261 60.8429 275.261 61.1712V61.1165ZM292.465 120.154L281.277 91.3738C281.096 91.1002 280.976 90.8813 280.675 90.8813H275.923C275.562 90.8813 275.321 91.1002 275.321 91.4285V119.88C275.321 120.208 275.141 120.591 274.84 120.756C274.539 120.92 274.239 121.193 273.878 121.193H256.914C256.554 121.193 256.132 121.139 255.952 120.756C255.651 120.482 255.471 120.208 255.471 119.88V46.4529C255.471 46.1246 255.531 45.7416 255.952 45.5775C256.253 45.3039 256.554 45.1397 256.914 45.1397H287.532C292.465 45.1397 296.856 46.1793 300.646 48.0943C304.435 50.1188 307.323 52.8545 309.428 56.411C311.473 59.9127 312.556 64.0711 312.556 68.6671C312.556 73.2632 311.473 77.2026 309.368 80.5949C307.142 84.042 304.195 86.6136 300.405 88.3097C300.104 88.3097 300.044 88.5833 300.165 89.021L313.218 119.661C313.218 119.825 313.278 119.935 313.278 120.208C313.278 120.92 312.797 121.193 311.894 121.193H294.089C293.247 121.193 292.706 120.92 292.585 120.154H292.525H292.465Z" fill="white"/>
<path d="M345.761 96.0792H358.573C358.754 96.0792 358.874 96.0792 359.115 95.915C359.295 95.8603 359.355 95.6414 359.175 95.4226L352.498 68.5029C352.498 68.2293 352.257 68.0105 352.197 68.0105C352.017 68.0105 351.896 68.1746 351.896 68.5029L345.28 95.5867C345.219 95.915 345.28 96.1339 345.821 96.1339H345.761V96.0792ZM365.371 119.99L363.025 110.414C363.025 110.141 362.724 109.922 362.423 109.922H342.212C341.911 109.922 341.67 110.086 341.61 110.414L339.264 119.99C339.084 120.81 338.603 121.248 337.76 121.248H320.196C319.113 121.248 318.752 120.756 318.993 119.88L340.347 46.3434C340.588 45.6321 341.129 45.2491 342.031 45.2491H362.904C363.807 45.2491 364.348 45.5774 364.589 46.3434L385.943 119.88V120.373C386.003 121.084 385.642 121.357 384.74 121.357H366.995C366.093 121.357 365.611 120.865 365.491 120.099H365.431L365.371 119.99Z" fill="white"/>
<path d="M398.696 120.155L378.183 46.618V46.1256C378.183 45.4143 378.665 45.1407 379.567 45.1407H397.974C398.876 45.1407 399.357 45.5785 399.478 46.3992L409.764 92.7974C409.764 93.0162 410.004 93.0709 410.065 93.0709C410.245 93.0709 410.365 93.0162 410.365 92.7974L420.351 46.3992C420.351 45.5785 420.952 45.1407 421.855 45.1407H439.78C440.923 45.1407 441.284 45.6332 441.164 46.5086L420.411 120.045C420.17 120.757 419.629 121.14 418.727 121.14H400.32C399.417 121.14 398.816 120.702 398.575 120.045H398.635L398.696 120.155Z" fill="white"/>
<path d="M459.811 96.0792H472.624C472.804 96.0792 472.925 96.0792 473.165 95.915C473.346 95.8603 473.406 95.6414 473.225 95.4226L466.548 68.5029C466.548 68.2293 466.308 68.0105 466.248 68.0105C466.067 68.0105 465.947 68.1746 465.947 68.5029L459.33 95.5867C459.27 95.915 459.39 96.1339 459.871 96.1339H459.811V96.0792ZM479.421 119.99L477.075 110.414C477.075 110.141 476.774 109.922 476.474 109.922H456.262C455.961 109.922 455.721 110.086 455.661 110.414L453.315 119.99C453.134 120.81 452.653 121.248 451.811 121.248H434.246C433.163 121.248 432.802 120.756 433.043 119.88L454.397 46.3434C454.638 45.6321 455.179 45.2491 456.082 45.2491H476.955C477.857 45.2491 478.399 45.5774 478.639 46.3434L499.994 119.88V120.373C500.054 121.084 499.693 121.357 498.791 121.357H480.985C480.143 121.357 479.602 120.865 479.481 120.099L479.421 119.99Z" fill="white"/>
<path d="M184.791 60.5693C185.152 60.5693 185.573 60.4052 185.753 60.1316C185.994 59.858 186.234 59.5845 186.234 59.2562V46.3982C186.234 46.0699 186.054 45.6869 185.753 45.5227C185.452 45.3586 185.152 45.085 184.791 45.085H162.594C160.79 45.085 158.985 45.3039 157.12 45.7963C153.03 46.8359 149.3 48.9698 146.052 52.2527C142.864 55.5356 140.879 59.092 140.217 62.8673C139.555 66.6427 139.676 70.3086 140.698 73.8103C141.601 77.2573 143.044 81.2515 144.849 85.6834C146.353 89.5135 148.157 94.2189 148.699 95.8057C149.24 97.3924 149.541 98.9244 149.481 100.238C149.481 101.551 148.879 102.809 147.917 103.739C146.714 104.998 145.09 105.654 143.345 105.764H123.374C123.013 105.764 122.592 105.928 122.412 106.201C122.231 106.475 121.931 106.749 121.931 107.077V119.88C121.931 120.208 122.111 120.591 122.412 120.756C122.713 120.92 123.013 121.193 123.374 121.193H145.571C151.827 121.193 157.481 118.731 162.233 113.752C165.06 110.907 166.685 108.062 167.406 104.943C168.068 101.824 168.188 98.8697 167.406 96.0793C166.745 93.1794 165.662 89.6229 164.158 85.191L162.895 81.6892C161.391 77.9686 159.466 73.2084 158.865 71.2934C158.263 69.3784 157.962 67.6275 158.083 66.3144C158.143 64.9465 158.865 63.7428 159.827 62.7579C161.211 61.39 162.775 60.624 164.519 60.624L184.61 60.7882H184.851L184.791 60.5693Z" fill="white"/>
<path d="M31.0349 25.497L32.1177 23.6915C20.4479 23.5273 15.9364 18.986 21.7713 13.4598C26.0422 9.41088 34.9449 6.01856 43.6671 4.54126L44.5694 2.95453C34.0426 4.26769 22.1322 9.13731 16.8989 13.7881C9.92111 20.135 16.177 25.3876 30.9747 25.5518L31.0349 25.497Z" fill="white"/>
<path d="M27.1851 28.8892H28.9295L30.4935 26.3176C14.5529 26.1534 7.93604 20.5178 15.5755 13.7332C21.1096 8.7541 33.3207 3.72034 44.8701 2.46189L45.592 1.20345C32.659 1.86003 17.3801 7.16737 10.5828 13.5143C2.22149 21.5574 9.13911 28.8344 27.2452 28.8344L27.1851 28.8892Z" fill="white"/>
<path d="M10.643 31.0233C17.4403 32.993 24.6587 32.61 26.8242 32.4458L28.4483 29.7101H26.6437C7.6353 29.7101 0.356754 21.8312 9.25943 13.5692C16.4177 6.89402 31.9974 1.47725 45.8928 0.930107L46.5544 -4.57764e-05C30.3732 0.601818 12.3874 6.29216 4.26671 13.7334C-3.25244 20.6822 -0.665852 27.7951 10.7031 30.9138L10.5828 31.0233H10.643Z" fill="white"/>
<path d="M32.238 25.4971H35.2456L35.9675 23.7462H33.3207L32.2981 25.4971H32.1778H32.238Z" fill="white"/>
<path d="M28.3881 32.3911C29.4709 32.3911 31.095 32.227 32.4786 32.0628L33.5012 29.6007C32.2981 29.6007 30.8544 29.7648 29.892 29.7648L28.5085 32.3911H28.3881Z" fill="white"/>
<path d="M30.3131 28.8892C31.6966 28.8892 32.8395 28.725 33.8621 28.725L34.8847 26.3176H31.8169L30.4334 28.7797L30.3131 28.8892Z" fill="white"/>
<path d="M92.0303 8.20653C92.3311 6.72923 92.8724 5.63494 93.5943 5.1425C94.3161 4.54064 95.3989 4.21235 96.9629 4.21235H101.895L102.738 0.710602H96.0004C92.6318 0.710602 90.1054 1.31247 88.5414 2.35205C87.0977 3.44634 85.8947 5.58022 85.1728 8.69897L81.7441 23.7455C81.0824 26.3719 81.4433 28.3963 82.5862 29.7095C83.7893 30.9679 85.7744 31.6792 88.6617 31.6792H96.4816L97.3238 28.1774H92.2107C90.4663 28.1774 89.3835 27.7397 88.9625 26.919C88.4211 26.0983 88.4211 24.8398 88.9625 22.9248L90.7671 14.8817H98.9479L99.9705 10.7234H91.7897L92.4514 8.15182L92.1506 7.98767L92.0303 8.20653Z" fill="white"/>
<path d="M120.002 0.655891H108.633L101.354 31.6792H108.272L114.648 4.32178H115.851C117.054 4.32178 117.776 4.59536 118.317 5.08779C118.799 5.58023 118.859 6.2368 118.618 7.16695L112.783 31.6792H119.701L125.536 6.9481C126.017 4.97836 125.716 3.44635 124.694 2.40676C123.791 1.25776 122.227 0.765322 120.122 0.765322H120.002V0.655891Z" fill="white"/>
<path d="M150.259 0.655891H130.528L129.806 4.21235H136.062L129.686 31.6792H136.604L142.98 4.21235H149.416L150.259 0.655891Z" fill="white"/>
<path d="M163.913 7.54996L163.071 10.9423H157.718L158.56 7.54996C158.861 6.29151 159.221 5.30665 159.763 4.81421C160.304 4.21235 161.146 3.99349 162.109 3.99349C163.071 3.99349 163.673 4.26707 163.913 4.81421C164.214 5.41608 164.214 6.29151 163.913 7.54996ZM162.891 0.327597C159.703 0.327597 157.176 1.09361 155.131 2.57091C153.206 3.99349 151.883 6.12737 151.221 8.86311L145.867 31.6792H152.785L156.695 15.0459H162.049L158.139 31.6792H165.056L170.41 8.86311C171.072 5.90851 170.891 3.82935 169.568 2.40676C168.485 1.0936 166.199 0.437027 162.831 0.437027V0.327597H162.891Z" fill="white"/>
<path d="M190.982 0.656183L185.809 22.9798C185.328 24.7307 184.907 25.9344 184.426 26.6457C183.884 27.3023 183.162 27.6306 182.26 27.6306C181.358 27.6306 180.696 27.1929 180.456 26.5363C180.275 25.7703 180.456 24.6213 180.756 22.9798L185.929 0.656183H179.012L173.718 23.0893C173.057 26.0439 173.237 28.3966 174.561 29.7645C175.944 31.3512 177.929 32.0625 181.117 32.0625C184.305 32.0625 186.832 31.2965 188.757 29.8192C190.561 28.3419 191.945 25.9892 192.667 23.0346L197.96 0.601471H190.982H191.103L190.982 0.656183Z" fill="white"/>
<path d="M239.947 7.60497C239.767 9.57471 239.285 12.4746 238.383 16.1952C237.481 20.0252 236.639 22.8157 235.917 24.7854C235.195 26.7552 234.112 27.74 232.669 27.74C231.225 27.74 230.563 26.8099 230.744 25.1137C230.744 23.3081 231.405 20.2988 232.368 16.1952C233.21 12.4746 234.112 9.68413 234.834 7.65969C235.676 5.68995 236.759 4.59566 238.082 4.59566C239.406 4.59566 240.188 5.58052 239.887 7.55026L239.947 7.60497ZM245.962 3.22779C244.759 1.31277 242.413 0.3279 239.045 0.3279C235.676 0.3279 232.849 1.4222 230.684 3.44665C228.518 5.58052 226.653 9.79357 225.21 16.1952C223.766 22.4874 223.585 26.7004 224.728 28.8343C225.931 30.9682 228.157 32.0625 231.526 32.0625C234.894 32.0625 237.601 30.9682 239.827 28.8343C241.992 26.591 243.857 22.4874 245.301 16.1952C246.925 9.51999 247.105 5.08809 245.962 3.22779Z" fill="white"/>
<path d="M68.5104 27.0832C68.0292 26.2625 67.969 25.004 68.5104 23.089L70.4353 15.0459L71.4579 10.8876L72.1196 8.15185C72.4204 6.67455 73.0219 5.58025 73.6836 5.08782C74.3453 4.48596 75.4882 4.15767 76.9318 4.15767H81.8644L82.7066 0.65592H75.9694C72.5407 0.65592 70.0744 1.25778 68.5104 2.29737C66.9464 3.39166 65.8637 5.52554 65.1418 8.64428L61.7131 23.6909C61.0514 26.3172 61.3522 28.3416 62.5552 29.6548C63.7583 30.9679 65.7433 31.6245 68.6307 31.6245H76.4506L77.2928 28.1228H72.1797C70.3751 28.1228 69.2924 27.8492 68.8112 27.0285L68.6307 26.8643L68.5104 27.0832Z" fill="white"/>
<path d="M214.863 8.97254C214.382 10.7234 213.841 11.9271 213.299 12.6384C212.638 13.4044 211.856 13.7327 210.773 13.7327H208.788L210.953 4.15764H212.758C213.961 4.15764 214.683 4.48593 214.923 5.1425C215.284 5.79908 215.224 7.11224 214.743 8.97254L214.863 9.08197V8.97254ZM215.465 0.655888H204.998L197.72 31.6792H204.637L208.006 17.3439H210.893C211.735 17.3439 212.277 17.5081 212.698 17.9458C213.059 18.3835 213.239 18.8759 212.998 19.6967L210.292 31.6792H216.848L219.675 19.9155C219.976 18.6024 219.856 17.4533 219.134 16.4138C218.472 15.4836 217.329 14.9365 215.766 14.7723C217.51 14.2799 218.833 13.5139 219.976 12.3649C221.059 11.2159 221.781 9.73855 222.262 7.82353C222.924 5.41608 222.623 3.61049 221.6 2.35205C220.518 1.20304 218.593 0.601173 215.705 0.601173H215.525L215.465 0.655888Z" fill="white"/>
<path d="M602.648 53C602.531 53 602.435 52.9627 602.36 52.888C602.285 52.8133 602.248 52.7227 602.248 52.616V42.2C602.248 42.0827 602.285 41.9867 602.36 41.912C602.435 41.8373 602.531 41.8 602.648 41.8H603.912C604.061 41.8 604.173 41.8427 604.248 41.928C604.323 42.0027 604.371 42.0613 604.392 42.104L607.48 47.864L610.6 42.104C610.621 42.0613 610.669 42.0027 610.744 41.928C610.819 41.8427 610.931 41.8 611.08 41.8H612.328C612.445 41.8 612.541 41.8373 612.616 41.912C612.691 41.9867 612.728 42.0827 612.728 42.2V52.616C612.728 52.7227 612.691 52.8133 612.616 52.888C612.541 52.9627 612.445 53 612.328 53H610.984C610.867 53 610.771 52.9627 610.696 52.888C610.632 52.8133 610.6 52.7227 610.6 52.616V45.688L608.36 49.96C608.307 50.056 608.237 50.1413 608.152 50.216C608.067 50.28 607.955 50.312 607.816 50.312H607.16C607.011 50.312 606.893 50.28 606.808 50.216C606.733 50.1413 606.669 50.056 606.616 49.96L604.376 45.688V52.616C604.376 52.7227 604.339 52.8133 604.264 52.888C604.189 52.9627 604.099 53 603.992 53H602.648ZM614.529 53C614.443 53 614.363 52.968 614.289 52.904C614.225 52.84 614.193 52.76 614.193 52.664C614.193 52.6213 614.203 52.5733 614.225 52.52L618.081 42.2C618.113 42.0933 618.171 42.0027 618.257 41.928C618.353 41.8427 618.481 41.8 618.641 41.8H620.385C620.545 41.8 620.667 41.8427 620.753 41.928C620.838 42.0027 620.902 42.0933 620.945 42.2L624.801 52.52C624.811 52.5733 624.817 52.6213 624.817 52.664C624.817 52.76 624.785 52.84 624.721 52.904C624.657 52.968 624.582 53 624.497 53H623.105C622.955 53 622.843 52.968 622.769 52.904C622.705 52.8293 622.662 52.76 622.641 52.696L621.889 50.744H617.137L616.385 52.696C616.363 52.76 616.315 52.8293 616.241 52.904C616.177 52.968 616.07 53 615.921 53H614.529ZM617.697 48.904H621.329L619.505 43.96L617.697 48.904ZM626.695 53C626.588 53 626.497 52.9627 626.423 52.888C626.348 52.8133 626.311 52.7227 626.311 52.616V42.2C626.311 42.0827 626.348 41.9867 626.423 41.912C626.497 41.8373 626.588 41.8 626.695 41.8H630.839C632.129 41.8 633.148 42.0987 633.895 42.696C634.641 43.2933 635.015 44.1627 635.015 45.304C635.015 46.0933 634.817 46.7493 634.423 47.272C634.039 47.7947 633.521 48.1733 632.871 48.408L635.207 52.488C635.239 52.552 635.255 52.6107 635.255 52.664C635.255 52.76 635.217 52.84 635.143 52.904C635.079 52.968 635.004 53 634.919 53H633.463C633.281 53 633.143 52.952 633.047 52.856C632.951 52.76 632.876 52.664 632.823 52.568L630.759 48.776H628.535V52.616C628.535 52.7227 628.497 52.8133 628.423 52.888C628.359 52.9627 628.268 53 628.151 53H626.695ZM628.535 46.968H630.791C631.441 46.968 631.927 46.824 632.247 46.536C632.567 46.2373 632.727 45.8213 632.727 45.288C632.727 44.7547 632.567 44.3387 632.247 44.04C631.937 43.7307 631.452 43.576 630.791 43.576H628.535V46.968ZM641.365 53.16C640.373 53.16 639.53 52.9893 638.837 52.648C638.154 52.296 637.632 51.8 637.269 51.16C636.906 50.5093 636.704 49.7307 636.661 48.824C636.65 48.3867 636.645 47.9173 636.645 47.416C636.645 46.9147 636.65 46.4347 636.661 45.976C636.704 45.08 636.906 44.3067 637.269 43.656C637.642 43.0053 638.17 42.5093 638.853 42.168C639.546 41.816 640.384 41.64 641.365 41.64C642.09 41.64 642.741 41.736 643.317 41.928C643.893 42.12 644.384 42.3867 644.789 42.728C645.194 43.0587 645.509 43.448 645.733 43.896C645.957 44.344 646.074 44.8293 646.085 45.352C646.096 45.448 646.064 45.528 645.989 45.592C645.925 45.656 645.845 45.688 645.749 45.688H644.229C644.112 45.688 644.016 45.6613 643.941 45.608C643.866 45.544 643.813 45.4427 643.781 45.304C643.61 44.6 643.317 44.12 642.901 43.864C642.485 43.608 641.968 43.48 641.349 43.48C640.634 43.48 640.064 43.6827 639.637 44.088C639.21 44.4827 638.981 45.1387 638.949 46.056C638.917 46.9307 638.917 47.8267 638.949 48.744C638.981 49.6613 639.21 50.3227 639.637 50.728C640.064 51.1227 640.634 51.32 641.349 51.32C641.968 51.32 642.485 51.192 642.901 50.936C643.317 50.6693 643.61 50.1893 643.781 49.496C643.813 49.3467 643.866 49.2453 643.941 49.192C644.016 49.1387 644.112 49.112 644.229 49.112H645.749C645.845 49.112 645.925 49.144 645.989 49.208C646.064 49.272 646.096 49.352 646.085 49.448C646.074 49.9707 645.957 50.456 645.733 50.904C645.509 51.352 645.194 51.7467 644.789 52.088C644.384 52.4187 643.893 52.68 643.317 52.872C642.741 53.064 642.09 53.16 641.365 53.16ZM647.169 53C647.084 53 647.004 52.968 646.929 52.904C646.865 52.84 646.833 52.76 646.833 52.664C646.833 52.6213 646.844 52.5733 646.865 52.52L650.721 42.2C650.753 42.0933 650.812 42.0027 650.897 41.928C650.993 41.8427 651.121 41.8 651.281 41.8H653.025C653.185 41.8 653.308 41.8427 653.393 41.928C653.479 42.0027 653.543 42.0933 653.585 42.2L657.441 52.52C657.452 52.5733 657.457 52.6213 657.457 52.664C657.457 52.76 657.425 52.84 657.361 52.904C657.297 52.968 657.223 53 657.137 53H655.745C655.596 53 655.484 52.968 655.409 52.904C655.345 52.8293 655.303 52.76 655.281 52.696L654.529 50.744H649.777L649.025 52.696C649.004 52.76 648.956 52.8293 648.881 52.904C648.817 52.968 648.711 53 648.561 53H647.169ZM650.337 48.904H653.969L652.145 43.96L650.337 48.904ZM666.49 53.16C665.54 53.16 664.724 53.0053 664.042 52.696C663.359 52.376 662.826 51.8907 662.442 51.24C662.058 50.5787 661.85 49.7573 661.818 48.776C661.807 48.3173 661.802 47.864 661.802 47.416C661.802 46.968 661.807 46.5093 661.818 46.04C661.85 45.0693 662.063 44.2587 662.458 43.608C662.852 42.9573 663.391 42.4667 664.074 42.136C664.767 41.8053 665.572 41.64 666.49 41.64C667.407 41.64 668.212 41.8053 668.906 42.136C669.599 42.4667 670.143 42.9573 670.538 43.608C670.932 44.2587 671.146 45.0693 671.178 46.04C671.199 46.5093 671.21 46.968 671.21 47.416C671.21 47.864 671.199 48.3173 671.178 48.776C671.146 49.7573 670.938 50.5787 670.554 51.24C670.17 51.8907 669.631 52.376 668.938 52.696C668.255 53.0053 667.439 53.16 666.49 53.16ZM666.49 51.32C667.183 51.32 667.748 51.1173 668.186 50.712C668.623 50.296 668.858 49.624 668.89 48.696C668.911 48.2267 668.922 47.7947 668.922 47.4C668.922 46.9947 668.911 46.5627 668.89 46.104C668.868 45.4853 668.751 44.984 668.538 44.6C668.335 44.2053 668.058 43.9227 667.706 43.752C667.354 43.5707 666.948 43.48 666.49 43.48C666.042 43.48 665.642 43.5707 665.29 43.752C664.938 43.9227 664.655 44.2053 664.442 44.6C664.239 44.984 664.127 45.4853 664.106 46.104C664.095 46.5627 664.09 46.9947 664.09 47.4C664.09 47.7947 664.095 48.2267 664.106 48.696C664.138 49.624 664.372 50.296 664.81 50.712C665.247 51.1173 665.807 51.32 666.49 51.32ZM673.695 53C673.588 53 673.497 52.9627 673.423 52.888C673.348 52.8133 673.311 52.7227 673.311 52.616V42.2C673.311 42.0827 673.348 41.9867 673.423 41.912C673.497 41.8373 673.588 41.8 673.695 41.8H680.639C680.756 41.8 680.852 41.8373 680.927 41.912C681.001 41.9867 681.039 42.0827 681.039 42.2V43.32C681.039 43.4373 681.001 43.5333 680.927 43.608C680.852 43.672 680.756 43.704 680.639 43.704H675.503V46.744H680.319C680.436 46.744 680.532 46.7813 680.607 46.856C680.681 46.9307 680.719 47.0267 680.719 47.144V48.264C680.719 48.3707 680.681 48.4613 680.607 48.536C680.532 48.6107 680.436 48.648 680.319 48.648H675.503V52.616C675.503 52.7227 675.465 52.8133 675.391 52.888C675.316 52.9627 675.22 53 675.103 53H673.695ZM683.304 53C683.197 53 683.107 52.9627 683.032 52.888C682.957 52.8133 682.92 52.7227 682.92 52.616V42.184C682.92 42.0773 682.957 41.9867 683.032 41.912C683.107 41.8373 683.197 41.8 683.304 41.8H684.808C684.925 41.8 685.016 41.8373 685.08 41.912C685.155 41.9867 685.192 42.0773 685.192 42.184V52.616C685.192 52.7227 685.155 52.8133 685.08 52.888C685.016 52.9627 684.925 53 684.808 53H683.304ZM692.021 53.16C691.029 53.16 690.186 52.9893 689.493 52.648C688.81 52.296 688.288 51.8 687.925 51.16C687.562 50.5093 687.36 49.7307 687.317 48.824C687.306 48.3867 687.301 47.9173 687.301 47.416C687.301 46.9147 687.306 46.4347 687.317 45.976C687.36 45.08 687.562 44.3067 687.925 43.656C688.298 43.0053 688.826 42.5093 689.509 42.168C690.202 41.816 691.04 41.64 692.021 41.64C692.746 41.64 693.397 41.736 693.973 41.928C694.549 42.12 695.04 42.3867 695.445 42.728C695.85 43.0587 696.165 43.448 696.389 43.896C696.613 44.344 696.73 44.8293 696.741 45.352C696.752 45.448 696.72 45.528 696.645 45.592C696.581 45.656 696.501 45.688 696.405 45.688H694.885C694.768 45.688 694.672 45.6613 694.597 45.608C694.522 45.544 694.469 45.4427 694.437 45.304C694.266 44.6 693.973 44.12 693.557 43.864C693.141 43.608 692.624 43.48 692.005 43.48C691.29 43.48 690.72 43.6827 690.293 44.088C689.866 44.4827 689.637 45.1387 689.605 46.056C689.573 46.9307 689.573 47.8267 689.605 48.744C689.637 49.6613 689.866 50.3227 690.293 50.728C690.72 51.1227 691.29 51.32 692.005 51.32C692.624 51.32 693.141 51.192 693.557 50.936C693.973 50.6693 694.266 50.1893 694.437 49.496C694.469 49.3467 694.522 49.2453 694.597 49.192C694.672 49.1387 694.768 49.112 694.885 49.112H696.405C696.501 49.112 696.581 49.144 696.645 49.208C696.72 49.272 696.752 49.352 696.741 49.448C696.73 49.9707 696.613 50.456 696.389 50.904C696.165 51.352 695.85 51.7467 695.445 52.088C695.04 52.4187 694.549 52.68 693.973 52.872C693.397 53.064 692.746 53.16 692.021 53.16ZM699.023 53C698.916 53 698.825 52.9627 698.751 52.888C698.676 52.8133 698.639 52.7227 698.639 52.616V42.184C698.639 42.0773 698.676 41.9867 698.751 41.912C698.825 41.8373 698.916 41.8 699.023 41.8H700.527C700.644 41.8 700.735 41.8373 700.799 41.912C700.873 41.9867 700.911 42.0773 700.911 42.184V52.616C700.911 52.7227 700.873 52.8133 700.799 52.888C700.735 52.9627 700.644 53 700.527 53H699.023ZM702.732 53C702.647 53 702.567 52.968 702.492 52.904C702.428 52.84 702.396 52.76 702.396 52.664C702.396 52.6213 702.407 52.5733 702.428 52.52L706.284 42.2C706.316 42.0933 706.375 42.0027 706.46 41.928C706.556 41.8427 706.684 41.8 706.844 41.8H708.588C708.748 41.8 708.871 41.8427 708.956 41.928C709.041 42.0027 709.105 42.0933 709.148 42.2L713.004 52.52C713.015 52.5733 713.02 52.6213 713.02 52.664C713.02 52.76 712.988 52.84 712.924 52.904C712.86 52.968 712.785 53 712.7 53H711.308C711.159 53 711.047 52.968 710.972 52.904C710.908 52.8293 710.865 52.76 710.844 52.696L710.092 50.744H705.34L704.588 52.696C704.567 52.76 704.519 52.8293 704.444 52.904C704.38 52.968 704.273 53 704.124 53H702.732ZM705.9 48.904H709.532L707.708 43.96L705.9 48.904ZM714.898 53C714.791 53 714.7 52.9627 714.626 52.888C714.551 52.8133 714.514 52.7227 714.514 52.616V42.184C714.514 42.0773 714.551 41.9867 714.626 41.912C714.7 41.8373 714.791 41.8 714.898 41.8H716.386C716.492 41.8 716.583 41.8373 716.658 41.912C716.732 41.9867 716.77 42.0773 716.77 42.184V51.096H721.842C721.959 51.096 722.055 51.1333 722.13 51.208C722.204 51.2827 722.242 51.3787 722.242 51.496V52.616C722.242 52.7227 722.204 52.8133 722.13 52.888C722.055 52.9627 721.959 53 721.842 53H714.898Z" fill="white"/>
<g clip-path="url(#clip0_445_615)">
<path d="M585.666 120.971C579.814 120.738 575.026 119.137 571.282 116.163C570.567 115.595 568.865 113.891 568.293 113.172C566.775 111.263 565.743 109.406 565.055 107.344C562.936 100.999 564.026 92.6723 568.173 83.5341C571.724 75.7106 577.202 67.9512 586.76 57.2046C588.168 55.6233 592.361 50.9985 592.388 50.9985C592.398 50.9985 592.17 51.3944 591.882 51.8764C589.397 56.0391 587.27 60.9425 586.112 65.1874C584.251 71.9988 584.475 77.8441 586.769 82.3766C588.352 85.4992 591.064 88.2039 594.115 89.6991C599.455 92.3156 607.273 92.532 616.822 90.3324C617.479 90.1801 650.054 81.5328 689.21 71.1159C728.367 60.6979 760.409 52.181 760.414 52.188C760.425 52.1971 669.442 91.1291 622.212 111.327C614.732 114.524 612.732 115.332 609.216 116.567C600.227 119.723 592.175 121.229 585.666 120.971Z" fill="white"/>
</g>
<defs>
<clipPath id="clip0_445_615">
<rect width="196.414" height="70" fill="white" transform="translate(564 51)"/>
</clipPath>
</defs>
</svg>
