<svg width="379" height="50" viewBox="0 0 379 50" fill="none" xmlns="http://www.w3.org/2000/svg">
<path d="M47.6165 39.1192L49.2777 36.3489C31.373 36.097 24.4511 29.1293 33.4035 20.6506C39.9562 14.4384 53.6155 9.2336 66.9979 6.967L68.3822 4.53249C52.2311 6.54725 33.9572 14.0186 25.9278 21.1542C15.2219 30.8922 24.8203 38.9513 47.5242 39.2031L47.6165 39.1192Z" fill="white"/>
<path d="M41.7097 44.3223H44.3862L46.7858 40.3767C22.3284 40.1249 12.1762 31.4782 23.8973 21.0686C32.3882 13.4293 51.1236 5.70606 68.8437 3.77525L69.9512 1.84444C50.1084 2.85182 26.6661 10.9948 16.2371 20.7328C3.40843 33.0732 14.022 44.2383 41.802 44.2383L41.7097 44.3223Z" fill="white"/>
<path d="M16.3294 47.5987C26.7584 50.6208 37.8335 50.0332 41.156 49.7813L43.6479 45.5839H40.8791C11.7147 45.5839 0.547363 33.4954 14.2066 20.8192C25.1894 10.5775 49.0931 2.2666 70.4127 1.42712L71.4279 0C46.6012 0.923428 19.0058 9.65405 6.54636 21.071C-4.99018 31.7324 -1.02161 42.6457 16.4216 47.4308L16.2371 47.5987H16.3294Z" fill="white"/>
<path d="M49.4623 39.1201H54.0769L55.1844 36.4338H51.1235L49.5546 39.1201H49.37H49.4623Z" fill="white"/>
<path d="M43.5555 49.6973C45.2168 49.6973 47.7087 49.4454 49.8314 49.1936L51.4004 45.4159C49.5545 45.4159 47.3395 45.6677 45.8629 45.6677L43.7401 49.6973H43.5555Z" fill="white"/>
<path d="M46.509 44.3223C48.6317 44.3223 50.3853 44.0704 51.9542 44.0704L53.5232 40.3767H48.8163L46.6936 44.1544L46.509 44.3223Z" fill="white"/>
<path d="M141.201 12.5907C141.662 10.3241 142.493 8.64512 143.601 7.88959C144.708 6.96616 146.369 6.46246 148.769 6.46246H156.337L157.629 1.08978H147.292C142.124 1.08978 138.248 2.01321 135.848 3.60822C133.633 5.28719 131.787 8.56117 130.68 13.3462L125.419 36.432C124.404 40.4615 124.957 43.5676 126.711 45.5824C128.557 47.5132 131.603 48.6045 136.033 48.6045H148.031L149.323 43.2318H141.478C138.801 43.2318 137.14 42.5602 136.494 41.301C135.663 40.0418 135.663 38.111 136.494 35.1728L139.263 22.8324H151.815L153.383 16.4523H140.832L141.847 12.5067L141.385 12.2549L141.201 12.5907Z" fill="white"/>
<path d="M184.117 1.00583H166.674L155.506 48.6045H166.12L175.903 6.63036H177.749C179.595 6.63036 180.702 7.05011 181.533 7.80564C182.271 8.56117 182.363 9.56855 181.994 10.9957L173.042 48.6045H183.655L192.608 10.6599C193.346 7.63774 192.885 5.28719 191.316 3.69217C189.931 1.92926 187.532 1.17373 184.301 1.17373H184.117V1.00583Z" fill="white"/>
<path d="M230.54 1.00583H200.268L199.16 6.46246H208.759L198.976 48.6045H209.589L219.372 6.46246H229.248L230.54 1.00583Z" fill="white"/>
<path d="M251.49 11.5833L250.198 16.7881H241.984L243.276 11.5833C243.738 9.6525 244.291 8.14143 245.122 7.38589C245.953 6.46246 247.245 6.12667 248.721 6.12667C250.198 6.12667 251.121 6.54641 251.49 7.38589C251.952 8.30932 251.952 9.6525 251.49 11.5833ZM249.921 0.502132C245.03 0.502132 241.153 1.67741 238.016 3.94402C235.062 6.12667 233.032 9.40065 232.017 13.5981L223.802 48.6045H234.416L240.415 23.0842H248.629L242.63 48.6045H253.244L261.458 13.5981C262.473 9.06486 262.196 5.87482 260.166 3.69217C258.504 1.67741 254.997 0.670029 249.829 0.670029V0.502132H249.921Z" fill="white"/>
<path d="M293.022 1.00705L285.085 35.2579C284.346 37.9443 283.7 39.7912 282.962 40.8825C282.131 41.8899 281.024 42.3935 279.639 42.3935C278.255 42.3935 277.24 41.722 276.871 40.7146C276.594 39.5393 276.871 37.7764 277.332 35.2579L285.269 1.00705H274.656L266.534 35.4258C265.519 39.959 265.796 43.5688 267.826 45.6675C269.949 48.102 272.994 49.1934 277.886 49.1934C282.777 49.1934 286.654 48.0181 289.607 45.7515C292.376 43.4849 294.498 39.8751 295.606 35.3419L303.728 0.923103H293.022H293.206L293.022 1.00705Z" fill="white"/>
<path d="M368.148 11.6685C367.871 14.6906 367.133 19.1399 365.748 24.8484C364.364 30.7247 363.072 35.0061 361.964 38.0282C360.857 41.0504 359.195 42.5614 356.98 42.5614C354.765 42.5614 353.75 41.1343 354.027 38.5319C354.027 35.7616 355.042 31.1445 356.519 24.8484C357.811 19.1399 359.195 14.8585 360.303 11.7524C361.595 8.7303 363.256 7.05133 365.287 7.05133C367.317 7.05133 368.517 8.5624 368.055 11.5845L368.148 11.6685ZM377.377 4.95263C375.531 2.01444 371.932 0.503372 366.763 0.503372C361.595 0.503372 357.257 2.18234 353.935 5.28842C350.612 8.5624 347.751 15.0264 345.536 24.8484C343.321 34.5024 343.044 40.9664 344.798 44.2404C346.644 47.5144 350.058 49.1934 355.227 49.1934C360.395 49.1934 364.548 47.5144 367.963 44.2404C371.286 40.7985 374.147 34.5024 376.362 24.8484C378.854 14.6067 379.131 7.80687 377.377 4.95263Z" fill="white"/>
<path d="M105.115 41.5528C104.376 40.2936 104.284 38.3628 105.115 35.4246L108.068 23.0842L109.637 16.7041L110.652 12.5067C111.114 10.2401 112.037 8.56113 113.052 7.8056C114.067 6.88217 115.821 6.37848 118.036 6.37848H125.604L126.896 1.00579H116.559C111.298 1.00579 107.514 1.92922 105.115 3.52424C102.715 5.20321 101.054 8.47718 99.9463 13.2622L94.6856 36.348C93.6704 40.3775 94.1319 43.4836 95.9777 45.4984C97.8235 47.5131 100.869 48.5205 105.299 48.5205H117.297L118.589 43.1478H110.744C107.976 43.1478 106.314 42.7281 105.576 41.4689L105.299 41.217L105.115 41.5528Z" fill="white"/>
<path d="M329.662 13.766C328.923 16.4523 328.093 18.2992 327.262 19.3905C326.247 20.5658 325.047 21.0695 323.386 21.0695H320.34L323.663 6.37851H326.432C328.277 6.37851 329.385 6.8822 329.754 7.88958C330.308 8.89696 330.216 10.9117 329.477 13.766L329.662 13.9339V13.766ZM330.585 1.00582H314.526L303.359 48.6045H313.972L319.141 26.61H323.571C324.863 26.61 325.693 26.8619 326.339 27.5335C326.893 28.2051 327.17 28.9606 326.801 30.2198L322.648 48.6045H332.707L337.045 30.5556C337.507 28.5409 337.322 26.7779 336.215 25.1829C335.199 23.7558 333.446 22.9163 331.046 22.6645C333.723 21.9089 335.753 20.7337 337.507 18.9708C339.168 17.2078 340.275 14.9412 341.014 12.003C342.029 8.30932 341.568 5.53903 339.999 3.60822C338.337 1.84531 335.384 0.921875 330.954 0.921875H330.677L330.585 1.00582Z" fill="white"/>
</svg>
